<svg width="14" height="15" viewBox="0 0 14 15" fill="none" xmlns="http://www.w3.org/2000/svg">
<path d="M4.66683 10.0833H3.50016C3.19074 10.0833 2.894 9.96043 2.6752 9.74163C2.45641 9.52284 2.3335 9.2261 2.3335 8.91668V4.25001C2.3335 3.94059 2.45641 3.64384 2.6752 3.42505C2.894 3.20626 3.19074 3.08334 3.50016 3.08334H8.16683C8.47625 3.08334 8.773 3.20626 8.99179 3.42505C9.21058 3.64384 9.3335 3.94059 9.3335 4.25001V5.41668M5.8335 12.4167H10.5002C10.8096 12.4167 11.1063 12.2938 11.3251 12.075C11.5439 11.8562 11.6668 11.5594 11.6668 11.25V6.58334C11.6668 6.27392 11.5439 5.97718 11.3251 5.75839C11.1063 5.53959 10.8096 5.41668 10.5002 5.41668H5.8335C5.52408 5.41668 5.22733 5.53959 5.00854 5.75839C4.78975 5.97718 4.66683 6.27392 4.66683 6.58334V11.25C4.66683 11.5594 4.78975 11.8562 5.00854 12.075C5.22733 12.2938 5.52408 12.4167 5.8335 12.4167Z" stroke="#333333" stroke-width="1.5" stroke-linecap="round" stroke-linejoin="round"/>
</svg>
