<svg width="20" height="20" viewBox="0 0 20 20" fill="none" xmlns="http://www.w3.org/2000/svg">
<path d="M12.5002 14.1667H16.6668L15.496 12.9958C15.3388 12.8386 15.214 12.6519 15.129 12.4464C15.0439 12.2409 15.0001 12.0207 15.0002 11.7983V9.16667C15.0003 8.13245 14.6798 7.12362 14.0829 6.27907C13.4859 5.43453 12.6418 4.7958 11.6668 4.45083V4.16667C11.6668 3.72464 11.4912 3.30072 11.1787 2.98816C10.8661 2.67559 10.4422 2.5 10.0002 2.5C9.55814 2.5 9.13421 2.67559 8.82165 2.98816C8.50909 3.30072 8.3335 3.72464 8.3335 4.16667V4.45083C6.39183 5.1375 5.00016 6.99 5.00016 9.16667V11.7992C5.00016 12.2475 4.82183 12.6783 4.50433 12.9958L3.3335 14.1667H7.50016M12.5002 14.1667H7.50016M12.5002 14.1667V15C12.5002 15.663 12.2368 16.2989 11.7679 16.7678C11.2991 17.2366 10.6632 17.5 10.0002 17.5C9.33712 17.5 8.70124 17.2366 8.2324 16.7678C7.76355 16.2989 7.50016 15.663 7.50016 15V14.1667" stroke="#333333" stroke-linecap="round" stroke-linejoin="round"/>
</svg>
