<svg width="12" height="12" viewBox="0 0 12 12" fill="none" xmlns="http://www.w3.org/2000/svg">
<g clip-path="url(#clip0_195_2412)">
<path d="M0.1 6C0.1 2.73873 2.73903 0.1 6 0.1C9.26127 0.1 11.9 2.73903 11.9 6C11.9 9.26127 9.26097 11.9 6 11.9C2.73873 11.9 0.1 9.26092 0.1 6ZM0.737211 6C0.737211 8.90202 3.09801 11.2628 6 11.2628C8.90202 11.2628 11.2628 8.90202 11.2628 6C11.2628 3.09798 8.90202 0.737211 6 0.737211C3.09801 0.737211 0.737211 3.09798 0.737211 6Z" fill="#04165B" stroke="#E5E9EB" stroke-width="0.2"/>
<path d="M5.90922 5.3174C5.68016 5.51481 5.38007 5.83865 5.38007 6.51787C5.38007 6.92854 5.49065 7.04702 5.81444 7.04702C6.20141 7.04702 6.2804 6.87328 6.2804 6.72318C6.2804 6.31251 6.2883 6.07558 6.72269 5.73597C6.93592 5.57013 7.60722 5.03306 7.60722 4.29067C7.60722 3.54829 6.93592 2.98755 5.92502 2.98755C4.8588 2.98755 4.36914 3.6194 4.36914 4.04587C4.36914 4.35388 4.62977 4.49606 4.843 4.49606C5.02263 4.49606 5.09578 4.38818 5.18047 4.2633C5.29686 4.09166 5.43503 3.8879 5.90132 3.8879C6.2962 3.8879 6.61213 4.06167 6.61213 4.42497C6.61213 4.77393 6.31601 5.00127 6.06559 5.19353C6.00996 5.23623 5.95659 5.27721 5.90922 5.3174ZM5.90922 5.3174L5.97392 5.39365C5.97401 5.39357 5.97411 5.39349 5.97421 5.39341M5.90922 5.3174L5.9745 5.39315C5.9744 5.39323 5.9743 5.39332 5.97421 5.39341M5.97421 5.39341C5.86414 5.4883 5.742 5.60936 5.64659 5.78475C5.55143 5.95967 5.48007 6.19384 5.48007 6.51787C5.48007 6.72121 5.50909 6.82066 5.55235 6.87206C5.59078 6.91774 5.65998 6.94702 5.81444 6.94702C5.99511 6.94702 6.08275 6.90621 6.12511 6.86754C6.16553 6.83062 6.1804 6.78115 6.1804 6.72318C6.1804 6.52094 6.18136 6.3409 6.24479 6.16841C6.3097 5.99193 6.43525 5.83376 6.6611 5.65719L6.66129 5.65703C6.7665 5.57521 6.97962 5.40558 7.16625 5.16779C7.35319 4.92959 7.50722 4.63107 7.50722 4.29067C7.50722 3.62401 6.9037 3.08755 5.92502 3.08755C4.89532 3.08755 4.46914 3.69164 4.46914 4.04587C4.46914 4.16822 4.51948 4.25266 4.58888 4.30863C4.66103 4.36681 4.75668 4.39606 4.843 4.39606C4.92005 4.39606 4.96427 4.37087 5.00383 4.33079C5.02584 4.30849 5.04688 4.28087 5.0708 4.2465C5.07852 4.23542 5.08702 4.22289 5.09603 4.20962C5.11264 4.18514 5.13096 4.15815 5.14913 4.13316C5.2087 4.05125 5.28614 3.96227 5.40789 3.8953C5.5295 3.82841 5.68714 3.7879 5.90132 3.7879C6.11151 3.7879 6.31135 3.83387 6.46173 3.93798C6.61635 4.04502 6.71213 4.20966 6.71213 4.42497C6.71213 4.6765 6.58063 4.86844 6.42887 5.01914C6.35285 5.09464 6.26923 5.1623 6.19037 5.2236C6.1678 5.24114 6.14586 5.25798 6.12458 5.27432C6.06985 5.31634 6.0195 5.35499 5.97421 5.39341ZM5.32212 8.20007C5.32212 7.92191 5.54757 7.69196 5.82236 7.69196C6.09882 7.69196 6.33047 7.92361 6.33047 8.20007C6.33047 8.47038 6.10506 8.70823 5.82236 8.70823C5.54135 8.70823 5.32212 8.47211 5.32212 8.20007Z" fill="#04165B" stroke="#E5E9EB" stroke-width="0.2"/>
</g>
<defs>
<clipPath id="clip0_195_2412">
<rect width="12" height="12" fill="white"/>
</clipPath>
</defs>
</svg>
