<svg width="10" height="10" viewBox="0 0 10 10" fill="none" xmlns="http://www.w3.org/2000/svg">
<g clip-path="url(#clip0_195_1716)">
<path d="M0.1 5C0.1 2.29148 2.29173 0.1 5 0.1C7.70852 0.1 9.9 2.29173 9.9 5C9.9 7.70852 7.70827 9.9 5 9.9C2.29148 9.9 0.1 7.70823 0.1 5ZM0.597676 5C0.597676 7.42755 2.57247 9.40232 5 9.40232C7.42755 9.40232 9.40232 7.42755 9.40232 5C9.40232 2.57245 7.42755 0.597676 5 0.597676C2.57247 0.597676 0.597676 2.57245 0.597676 5Z" fill="black" stroke="#E5E9EB" stroke-width="0.2"/>
<path d="M4.92402 4.43129C4.73314 4.5958 4.48307 4.86566 4.48307 5.43168C4.48307 5.77391 4.57521 5.87264 4.84504 5.87264C5.16752 5.87264 5.23334 5.72785 5.23334 5.60277C5.23334 5.26055 5.23992 5.06311 5.60191 4.7801C5.77961 4.64189 6.33902 4.19434 6.33902 3.57568C6.33902 2.95703 5.77961 2.48975 4.93719 2.48975C4.04867 2.48975 3.64062 3.01629 3.64062 3.37168C3.64062 3.62836 3.85781 3.74684 4.03551 3.74684C4.1852 3.74684 4.24616 3.65694 4.31673 3.55287C4.41372 3.40984 4.52887 3.24004 4.91744 3.24004C5.2465 3.24004 5.50979 3.38484 5.50979 3.6876C5.50979 3.97839 5.26302 4.16785 5.05433 4.32806C5.00797 4.36365 4.9635 4.3978 4.92402 4.43129ZM4.92402 4.43129L4.98872 4.50754C4.98882 4.50746 4.98891 4.50738 4.98901 4.50729M4.92402 4.43129L4.98931 4.50704C4.98921 4.50712 4.98911 4.50721 4.98901 4.50729M4.98901 4.50729C4.89803 4.58573 4.79794 4.68508 4.71981 4.82871C4.64192 4.97187 4.58307 5.16425 4.58307 5.43168C4.58307 5.6008 4.60748 5.6782 4.63938 5.71611C4.66647 5.74829 4.71756 5.77264 4.84504 5.77264C4.99346 5.77264 5.06169 5.73907 5.09269 5.71076C5.12177 5.68421 5.13334 5.64823 5.13334 5.60277C5.13334 5.43476 5.13397 5.2817 5.18803 5.13471C5.24355 4.98373 5.35068 4.84958 5.54032 4.70132L5.54052 4.70116C5.62796 4.63315 5.80422 4.49281 5.95844 4.29632C6.11297 4.09943 6.23902 3.85422 6.23902 3.57568C6.23902 3.03275 5.74738 2.58975 4.93719 2.58975C4.0852 2.58975 3.74063 3.08853 3.74063 3.37168C3.74063 3.46836 3.78011 3.53404 3.83421 3.57767C3.89105 3.62352 3.96696 3.64684 4.03551 3.64684C4.09478 3.64684 4.12748 3.62799 4.15767 3.5974C4.17499 3.57986 4.19187 3.55778 4.21166 3.52935C4.21786 3.52045 4.22483 3.51018 4.23228 3.49921C4.24624 3.47864 4.26187 3.45562 4.27714 3.43462C4.3275 3.36538 4.39375 3.28907 4.49822 3.23161C4.60256 3.17422 4.73682 3.14004 4.91744 3.14004C5.09473 3.14004 5.26495 3.17877 5.39393 3.26807C5.52716 3.36031 5.60979 3.50256 5.60979 3.6876C5.60979 3.90359 5.49672 4.06755 5.36881 4.19457C5.30472 4.25821 5.23438 4.3151 5.16854 4.36628C5.14952 4.38106 5.13111 4.39519 5.11332 4.40886C5.06787 4.44375 5.02641 4.47558 4.98901 4.50729ZM4.45145 6.83352C4.45145 6.61063 4.63213 6.42676 4.85164 6.42676C5.07282 6.42676 5.2584 6.61234 5.2584 6.83352C5.2584 7.04985 5.07774 7.24031 4.85164 7.24031C4.62723 7.24031 4.45145 7.05158 4.45145 6.83352Z" fill="black" stroke="#E5E9EB" stroke-width="0.2"/>
</g>
<defs>
<clipPath id="clip0_195_1716">
<rect width="10" height="10" fill="white"/>
</clipPath>
</defs>
</svg>
