<svg width="18" height="19" viewBox="0 0 18 19" fill="none" xmlns="http://www.w3.org/2000/svg">
<path fill-rule="evenodd" clip-rule="evenodd" d="M4.25 5.0791H7.8398V8.66891H4.25004L4.25 5.0791ZM4.25 10.2663H7.8398V13.8561H4.25004L4.25 10.2663ZM10.2487 5.0791H13.8385V8.66891H10.2487L10.2487 5.0791ZM10.2522 10.2713H11.3469V11.366H10.2522V10.2713ZM10.2522 12.765H11.3469V13.8596H10.2522V12.765ZM12.7458 10.2713H13.8405V11.366H12.7458V10.2713ZM12.7458 12.765H13.8405V13.8596H12.7458V12.765Z" fill="white"/>
<path fill-rule="evenodd" clip-rule="evenodd" d="M2.97393 3.398V8.05761C2.97393 8.24014 2.82575 8.38836 2.64321 8.38836C2.46068 8.38836 2.3125 8.24014 2.3125 8.05761V3.24317C2.31253 3.10882 2.36591 2.97998 2.46091 2.88498C2.55591 2.78998 2.68475 2.7366 2.8191 2.73657H7.18776C7.37029 2.73657 7.51847 2.88476 7.51847 3.06729C7.51847 3.24982 7.37029 3.398 7.18776 3.398H2.97393ZM2.97393 15.5323H7.18776C7.37029 15.5323 7.51847 15.6804 7.51847 15.863C7.51847 16.0455 7.37029 16.1937 7.18776 16.1937H2.8191C2.68475 16.1937 2.55591 16.1403 2.46091 16.0453C2.36591 15.9503 2.31253 15.8214 2.3125 15.6871V10.8726C2.3125 10.6901 2.46068 10.5419 2.64321 10.5419C2.82575 10.5419 2.97393 10.6901 2.97393 10.8726V15.5323ZM15.1083 3.398H10.8944C10.7119 3.398 10.5637 3.24982 10.5637 3.06729C10.5637 2.88476 10.7119 2.73657 10.8944 2.73657H15.2631C15.3974 2.7366 15.5263 2.78998 15.6213 2.88498C15.7163 2.97998 15.7697 3.10882 15.7697 3.24317V8.05761C15.7697 8.24014 15.6215 8.38836 15.439 8.38836C15.2564 8.38836 15.1083 8.24014 15.1083 8.05761V3.398ZM15.1083 15.5323V10.8726C15.1083 10.6901 15.2564 10.5419 15.439 10.5419C15.6215 10.5419 15.7697 10.6901 15.7697 10.8726V15.687C15.7697 15.8214 15.7163 15.9502 15.6213 16.0452C15.5263 16.1402 15.3974 16.1936 15.2631 16.1936H10.8944C10.7119 16.1936 10.5637 16.0455 10.5637 15.8629C10.5637 15.6804 10.7119 15.5322 10.8944 15.5322L15.1083 15.5323Z" fill="white"/>
</svg>
