<svg width="30" height="30" viewBox="0 0 30 30" fill="none" xmlns="http://www.w3.org/2000/svg">
<circle cx="15" cy="15" r="14.5" fill="white" stroke="#E5E9EB"/>
<path fill-rule="evenodd" clip-rule="evenodd" d="M14.9998 9.15107C16.7123 9.15107 18.1006 10.5394 18.1006 12.2519C18.1006 13.9644 16.7123 15.3526 14.9998 15.3526C13.2873 15.3526 11.8991 13.9644 11.8991 12.2519C11.8991 10.5394 13.2873 9.15107 14.9998 9.15107ZM15.2811 17.9455V23.7646L21.021 21.5327V17.8938L16.5328 19.639C16.4023 19.6894 16.2571 19.6355 16.1892 19.518L15.2811 17.9455ZM14.7186 23.7645V17.9455L13.8107 19.5181C13.7761 19.5778 13.7207 19.6227 13.6551 19.6441C13.5895 19.6656 13.5183 19.6621 13.4551 19.6343L8.97867 17.8938V21.5327L14.7186 23.7645ZM21.1794 14.7952L15.4062 17.04L16.5545 19.0289L22.3277 16.7841L21.1794 14.7952ZM14.5934 17.04L8.82018 14.7952L7.67188 16.7841L13.4451 19.0289L14.5934 17.04ZM14.9998 15.9151C13.4599 15.9151 12.1419 14.9649 11.6001 13.6188L9.47093 14.4467L14.9998 16.5965L20.5287 14.4467L18.3995 13.6188C17.8578 14.9649 16.5398 15.9151 14.9998 15.9151ZM20.6611 12.0446C20.8164 12.0446 20.9423 12.1706 20.9423 12.3259C20.9423 12.4812 20.8164 12.6071 20.6611 12.6071H19.3439C19.2693 12.6071 19.1977 12.5775 19.145 12.5248C19.0922 12.472 19.0626 12.4005 19.0626 12.3259C19.0626 12.2513 19.0922 12.1798 19.145 12.127C19.1977 12.0743 19.2693 12.0446 19.3439 12.0446H20.6611ZM14.7186 6.5166C14.7186 6.44201 14.7482 6.37047 14.8009 6.31773C14.8537 6.26498 14.9252 6.23535 14.9998 6.23535C15.0744 6.23535 15.1459 6.26498 15.1987 6.31773C15.2514 6.37047 15.2811 6.44201 15.2811 6.5166V7.83387C15.2811 7.90846 15.2514 7.98 15.1987 8.03274C15.1459 8.08549 15.0744 8.11512 14.9998 8.11512C14.9252 8.11512 14.8537 8.08549 14.8009 8.03274C14.7482 7.98 14.7186 7.90846 14.7186 7.83387V6.5166ZM11.8794 7.38746C11.8435 7.32312 11.8343 7.24719 11.8539 7.17614C11.8736 7.10509 11.9204 7.04464 11.9843 7.00791C12.0482 6.97119 12.1241 6.96114 12.1953 6.97996C12.2666 6.99877 12.3276 7.04493 12.3651 7.10842L13.0237 8.24921C13.0597 8.31354 13.0688 8.38947 13.0492 8.46052C13.0296 8.53158 12.9827 8.59202 12.9188 8.62875C12.8549 8.66548 12.7791 8.67552 12.7078 8.65671C12.6365 8.63789 12.5755 8.59173 12.5381 8.52824L11.8794 7.38746ZM9.85529 9.56293C9.79149 9.52533 9.74513 9.46404 9.72633 9.39242C9.70753 9.32079 9.71781 9.24463 9.75492 9.18055C9.79204 9.11647 9.85298 9.06966 9.92447 9.05033C9.99595 9.031 10.0722 9.04071 10.1365 9.07735L11.2773 9.73596C11.3403 9.77395 11.3859 9.83516 11.4042 9.90642C11.4225 9.97767 11.4121 10.0533 11.3752 10.1169C11.3384 10.1806 11.278 10.2272 11.207 10.2468C11.1361 10.2664 11.0603 10.2573 10.996 10.2215L9.85529 9.56293ZM9.19052 12.4591C9.11593 12.4591 9.04439 12.4295 8.99165 12.3767C8.9389 12.324 8.90927 12.2524 8.90927 12.1778C8.90927 12.1033 8.9389 12.0317 8.99165 11.979C9.04439 11.9262 9.11593 11.8966 9.19052 11.8966H10.5078C10.6631 11.8966 10.789 12.0225 10.789 12.1778C10.789 12.3332 10.6631 12.4591 10.5078 12.4591H9.19052ZM17.6147 7.18243C17.6517 7.11804 17.7128 7.07099 17.7845 7.05162C17.8562 7.03225 17.9327 7.04215 17.9971 7.07914C18.0615 7.11615 18.1085 7.17722 18.1279 7.24891C18.1473 7.32061 18.1374 7.39706 18.1004 7.46146L17.4418 8.60225C17.4048 8.66664 17.3437 8.7137 17.272 8.73307C17.2003 8.75244 17.1238 8.74254 17.0594 8.70554C16.995 8.66853 16.948 8.60746 16.9286 8.53576C16.9092 8.46407 16.9191 8.38761 16.9561 8.32321L17.6147 7.18243ZM19.7891 9.20553C19.8535 9.16889 19.9297 9.15918 20.0012 9.17851C20.0727 9.19784 20.1336 9.24465 20.1707 9.30873C20.2078 9.37281 20.2181 9.44897 20.1993 9.5206C20.1805 9.59222 20.1342 9.65351 20.0704 9.69111L18.9296 10.3497C18.7955 10.4274 18.6238 10.3816 18.5462 10.2476C18.4685 10.1135 18.5143 9.9418 18.6483 9.86414L19.7891 9.20553ZM16.1739 10.8378L14.3371 12.6746L13.7102 11.8858C13.556 11.6918 13.2738 11.6596 13.0799 11.8138C12.8859 11.968 12.8536 12.2502 13.0079 12.4442L13.9303 13.605C14.0898 13.8335 14.4183 13.8647 14.617 13.6659L16.8095 11.4735C16.985 11.298 16.985 11.0134 16.8095 10.8378C16.634 10.6623 16.3494 10.6623 16.1739 10.8378Z" fill="#9BC9FF"/>
</svg>
