<svg width="30" height="30" viewBox="0 0 30 30" fill="none" xmlns="http://www.w3.org/2000/svg">
<circle cx="15" cy="15" r="14.5" fill="white" stroke="#E5E9EB"/>
<g clip-path="url(#clip0_195_2526)">
<path fill-rule="evenodd" clip-rule="evenodd" d="M21.5625 8.25V22.5C21.5625 22.6023 21.5345 22.7027 21.4816 22.7903C21.4288 22.8779 21.353 22.9495 21.2625 22.9972C21.172 23.045 21.0702 23.0672 20.9681 23.0613C20.8659 23.0555 20.7672 23.022 20.6827 22.9642L18.8115 21.687L17.0422 22.9567C16.9392 23.031 16.8141 23.0681 16.6872 23.0619C16.5604 23.0558 16.4394 23.0068 16.344 22.923L15 21.7477L13.656 22.923C13.5606 23.0068 13.4396 23.0558 13.3128 23.0619C13.1859 23.0681 13.0608 23.031 12.9578 22.9567L11.1885 21.687L9.31725 22.9642C9.23275 23.022 9.13411 23.0555 9.03195 23.0613C8.92979 23.0672 8.82797 23.045 8.73748 22.9972C8.64698 22.9495 8.57122 22.8779 8.51836 22.7903C8.4655 22.7027 8.43755 22.6023 8.4375 22.5V8.25C8.4375 7.5255 9.02475 6.9375 9.75 6.9375H20.25C20.9753 6.9375 21.5625 7.5255 21.5625 8.25ZM12 14.0625H18C18.1492 14.0625 18.2923 14.0032 18.3977 13.8977C18.5032 13.7923 18.5625 13.6492 18.5625 13.5C18.5625 13.3508 18.5032 13.2077 18.3977 13.1023C18.2923 12.9968 18.1492 12.9375 18 12.9375H12C11.8508 12.9375 11.7077 12.9968 11.6023 13.1023C11.4968 13.2077 11.4375 13.3508 11.4375 13.5C11.4375 13.6492 11.4968 13.7923 11.6023 13.8977C11.7077 14.0032 11.8508 14.0625 12 14.0625ZM12 11.0625H18C18.1492 11.0625 18.2923 11.0032 18.3977 10.8977C18.5032 10.7923 18.5625 10.6492 18.5625 10.5C18.5625 10.3508 18.5032 10.2077 18.3977 10.1023C18.2923 9.99676 18.1492 9.9375 18 9.9375H12C11.8508 9.9375 11.7077 9.99676 11.6023 10.1023C11.4968 10.2077 11.4375 10.3508 11.4375 10.5C11.4375 10.6492 11.4968 10.7923 11.6023 10.8977C11.7077 11.0032 11.8508 11.0625 12 11.0625ZM12 17.0625H15C15.1492 17.0625 15.2923 17.0032 15.3977 16.8977C15.5032 16.7923 15.5625 16.6492 15.5625 16.5C15.5625 16.3508 15.5032 16.2077 15.3977 16.1023C15.2923 15.9968 15.1492 15.9375 15 15.9375H12C11.8508 15.9375 11.7077 15.9968 11.6023 16.1023C11.4968 16.2077 11.4375 16.3508 11.4375 16.5C11.4375 16.6492 11.4968 16.7923 11.6023 16.8977C11.7077 17.0032 11.8508 17.0625 12 17.0625Z" fill="#9BC9FF"/>
</g>
<defs>
<clipPath id="clip0_195_2526">
<rect width="18" height="18" fill="white" transform="translate(6 6)"/>
</clipPath>
</defs>
</svg>
