<svg width="30" height="30" viewBox="0 0 30 30" fill="none" xmlns="http://www.w3.org/2000/svg">
<circle cx="15" cy="15" r="14.5" fill="white" stroke="#E5E9EB"/>
<g clip-path="url(#clip0_195_1863)">
<g clip-path="url(#clip1_195_1863)">
<path d="M21.7933 13.1792C21.6201 12.5303 22.3929 11.4889 22.0644 10.9208C21.7312 10.3448 20.4394 10.4958 19.9719 10.0283C19.5045 9.56091 19.6555 8.26912 19.0781 7.93556C18.51 7.60706 17.4685 8.37994 16.8197 8.20669C16.1936 8.03906 15.6798 6.84375 15 6.84375C14.3202 6.84375 13.8064 8.03906 13.1792 8.20669C12.5303 8.37994 11.4889 7.60706 10.9208 7.93556C10.3448 8.26884 10.4958 9.56034 10.0283 10.0281C9.56091 10.4958 8.26912 10.3445 7.93556 10.9219C7.60706 11.49 8.37994 12.5315 8.20669 13.1803C8.03906 13.8064 6.84375 14.3202 6.84375 15C6.84375 15.6798 8.03906 16.1936 8.20669 16.8208C8.37994 17.4697 7.60706 18.5111 7.93556 19.079C8.26884 19.6552 9.56062 19.5042 10.0281 19.9717C10.4955 20.4391 10.3445 21.7309 10.9208 22.0644C11.4889 22.3929 12.5303 21.6201 13.1792 21.7933C13.8064 21.9609 14.3202 23.1562 15 23.1562C15.6798 23.1562 16.1936 21.9609 16.8208 21.7933C17.4697 21.6201 18.5111 22.3929 19.0793 22.0644C19.6553 21.7312 19.5042 20.4394 19.9717 19.9719C20.4391 19.5045 21.7309 19.6555 22.0644 19.0793C22.3929 18.5111 21.6201 17.4697 21.7933 16.8208C21.9609 16.1936 23.1562 15.6798 23.1562 15C23.1562 14.3202 21.9609 13.8064 21.7933 13.1792ZM15 20.0625C13.9987 20.0625 13.0199 19.7656 12.1874 19.2093C11.3549 18.653 10.706 17.8624 10.3229 16.9373C9.93969 16.0123 9.83944 14.9944 10.0348 14.0124C10.2301 13.0303 10.7123 12.1283 11.4203 11.4203C12.1283 10.7123 13.0303 10.2301 14.0124 10.0348C14.9944 9.83944 16.0123 9.93969 16.9373 10.3229C17.8624 10.706 18.653 11.3549 19.2093 12.1874C19.7656 13.0199 20.0625 13.9987 20.0625 15C20.0625 16.3427 19.5291 17.6303 18.5797 18.5797C17.6303 19.5291 16.3427 20.0625 15 20.0625Z" fill="#9BC9FF"/>
<path d="M12.4687 14.2868C12.6614 14.3981 12.8828 14.4497 13.1048 14.4352C13.3268 14.4206 13.5396 14.3406 13.7161 14.2051C13.8926 14.0697 14.025 13.8849 14.0965 13.6742C14.1681 13.4635 14.1755 13.2364 14.1179 13.0214C14.0603 12.8065 13.9403 12.6135 13.773 12.4668C13.6057 12.3201 13.3987 12.2263 13.1781 12.1972C12.9575 12.1682 12.7332 12.2052 12.5337 12.3036C12.3341 12.402 12.1682 12.5574 12.057 12.7501C11.9078 13.0085 11.8674 13.3155 11.9446 13.6037C12.0218 13.8919 12.2103 14.1377 12.4687 14.2868ZM17.5312 15.7133C17.3385 15.6021 17.1172 15.5505 16.8951 15.565C16.6731 15.5796 16.4604 15.6596 16.2839 15.7951C16.1073 15.9305 15.9749 16.1153 15.9034 16.326C15.8319 16.5367 15.8244 16.7638 15.882 16.9788C15.9396 17.1937 16.0596 17.3867 16.2269 17.5334C16.3942 17.6801 16.6012 17.7739 16.8218 17.803C17.0424 17.832 17.2667 17.795 17.4663 17.6966C17.6658 17.5982 17.8317 17.4428 17.943 17.2501C18.0921 16.9917 18.1326 16.6846 18.0554 16.3964C17.9781 16.1082 17.7896 15.8625 17.5312 15.7133ZM17.7843 12.2157C17.6789 12.1103 17.5358 12.051 17.3867 12.051C17.2375 12.051 17.0945 12.1103 16.989 12.2157L12.2156 16.9888C12.1101 17.0943 12.0508 17.2374 12.0508 17.3866C12.0508 17.5359 12.1101 17.679 12.2156 17.7845C12.3211 17.89 12.4642 17.9493 12.6134 17.9493C12.7626 17.9493 12.9057 17.89 13.0113 17.7845L17.7843 13.0114C17.8366 12.9591 17.8781 12.8971 17.9063 12.8289C17.9346 12.7606 17.9492 12.6874 17.9492 12.6135C17.9492 12.5397 17.9346 12.4665 17.9063 12.3982C17.8781 12.33 17.8366 12.268 17.7843 12.2157Z" fill="#9BC9FF"/>
<path d="M15 23.4375C14.505 23.4375 14.1382 23.0325 13.7833 22.6404C13.6058 22.3985 13.374 22.2015 13.1066 22.0653C12.7945 22.0457 12.4822 22.1009 12.1957 22.2262C11.7023 22.3837 11.1924 22.5465 10.7801 22.3077C10.3611 22.0656 10.2472 21.5374 10.1369 21.0266C10.103 20.721 9.9976 20.4277 9.82922 20.1705C9.57205 20.0022 9.27884 19.8969 8.97337 19.8631C8.46262 19.7531 7.93444 19.6387 7.69228 19.2188C7.4535 18.8064 7.61634 18.2963 7.77384 17.8029C7.89888 17.5164 7.95402 17.2043 7.93472 16.8923C7.79847 16.6249 7.60149 16.3931 7.35956 16.2156C6.9675 15.8617 6.5625 15.495 6.5625 15C6.5625 14.505 6.9675 14.1382 7.35956 13.7833C7.60149 13.6058 7.79847 13.374 7.93472 13.1066C7.954 12.7945 7.89886 12.4823 7.77384 12.1957C7.61634 11.7026 7.4535 11.1924 7.69228 10.7801C7.93444 10.3611 8.46262 10.2472 8.97337 10.1369C9.27896 10.103 9.57225 9.9976 9.8295 9.82922C9.99778 9.57205 10.1031 9.27884 10.1369 8.97337C10.2474 8.46262 10.3619 7.93444 10.7801 7.69228C11.1927 7.4535 11.7029 7.61663 12.1959 7.77384C12.4825 7.89877 12.7946 7.9539 13.1066 7.93472C13.374 7.79847 13.6058 7.60149 13.7833 7.35956C14.1382 6.9675 14.505 6.5625 15 6.5625C15.495 6.5625 15.8618 6.9675 16.2164 7.35928C16.394 7.60123 16.6257 7.7983 16.8931 7.93472C17.2053 7.95413 17.5177 7.89899 17.8043 7.77384C18.2977 7.61634 18.8073 7.45378 19.2202 7.69228C19.6389 7.93444 19.7528 8.46262 19.8631 8.97337C19.8971 9.27894 20.0025 9.57222 20.1708 9.8295C20.4281 9.99771 20.7214 10.103 21.0269 10.1369C21.5374 10.2474 22.0656 10.3619 22.3077 10.7801C22.5465 11.1924 22.3837 11.7023 22.2262 12.1957C22.1013 12.4823 22.0461 12.7945 22.065 13.1066C22.2016 13.3739 22.3986 13.6056 22.6404 13.7833C23.0325 14.1382 23.4375 14.505 23.4375 15C23.4375 15.495 23.0325 15.8617 22.6404 16.2167C22.3986 16.3944 22.2016 16.6261 22.065 16.8934C22.0461 17.2055 22.1013 17.5176 22.2262 17.8043C22.3837 18.2977 22.5465 18.8076 22.3077 19.2199C22.0656 19.6389 21.5374 19.7543 21.0269 19.8631C20.7213 19.8969 20.428 20.0023 20.1708 20.1708C20.0023 20.428 19.8968 20.7213 19.8628 21.0269C19.7526 21.5377 19.6378 22.0656 19.2202 22.3077C18.8073 22.5462 18.2971 22.3834 17.8041 22.2262C17.5175 22.101 17.2052 22.0459 16.8931 22.0653C16.6257 22.2017 16.394 22.3988 16.2164 22.6407C15.8618 23.0325 15.495 23.4375 15 23.4375ZM12.9671 21.4865C13.0632 21.4858 13.159 21.4976 13.252 21.5216C13.6303 21.6769 13.9584 21.9334 14.2004 22.263C14.4727 22.5639 14.7545 22.875 15 22.875C15.2455 22.875 15.5271 22.5639 15.7996 22.263C16.0416 21.9333 16.3698 21.6767 16.7483 21.5216C17.1649 21.4643 17.5893 21.5226 17.9751 21.6904C18.3519 21.8105 18.7415 21.9351 18.9383 21.8209C19.1414 21.7033 19.2286 21.2992 19.313 20.9082C19.3587 20.4947 19.518 20.1018 19.7731 19.7731C20.0465 19.4992 20.4847 19.4047 20.9079 19.3132C21.2989 19.2289 21.7036 19.1417 21.8212 18.9383C21.9337 18.7415 21.8107 18.3519 21.6904 17.9756C21.5222 17.5897 21.4638 17.1649 21.5216 16.748C21.6768 16.3696 21.9333 16.0415 22.263 15.7996C22.5639 15.5273 22.875 15.2455 22.875 15C22.875 14.7545 22.5639 14.4727 22.263 14.2004C21.9333 13.9585 21.6768 13.6304 21.5216 13.252C21.4638 12.8351 21.5222 12.4103 21.6904 12.0244C21.8107 11.6481 21.9348 11.2585 21.8212 11.0617C21.7033 10.8586 21.2989 10.7711 20.9082 10.687C20.4844 10.5953 20.0468 10.5 19.7731 10.2272C19.5184 9.89895 19.3593 9.50669 19.3135 9.09375C19.2289 8.7 19.1417 8.29669 18.9375 8.17913C18.7406 8.06438 18.3508 8.18981 17.9745 8.30962C17.5887 8.47739 17.1642 8.53577 16.7474 8.47838C16.369 8.32327 16.0407 8.06672 15.7987 7.737C15.5271 7.43606 15.2455 7.125 15 7.125C14.7545 7.125 14.4727 7.43606 14.2004 7.737C13.9584 8.06659 13.6303 8.32311 13.252 8.47838C12.8352 8.53594 12.4105 8.47755 12.0247 8.30962C11.6481 8.18925 11.2594 8.06466 11.0625 8.17913C10.8592 8.29669 10.7717 8.70113 10.6876 9.09206C10.5953 9.51563 10.5 9.95325 10.2272 10.2269C9.89843 10.4819 9.50559 10.641 9.09206 10.6867C8.70113 10.7711 8.29669 10.8583 8.17913 11.0617C8.06522 11.2585 8.18953 11.6481 8.30962 12.0247C8.47768 12.4105 8.53607 12.8352 8.47838 13.252C8.32311 13.6303 8.06659 13.9584 7.737 14.2004C7.43606 14.4727 7.125 14.7545 7.125 15C7.125 15.2455 7.43606 15.5273 7.737 15.7996C8.06659 16.0416 8.32311 16.3697 8.47838 16.748C8.53607 17.1648 8.47768 17.5895 8.30962 17.9753C8.18953 18.3517 8.06494 18.7406 8.17913 18.9375C8.29669 19.1408 8.70113 19.2283 9.09206 19.3124C9.51534 19.4041 9.95325 19.4986 10.2269 19.7722C10.4819 20.101 10.641 20.4938 10.6867 20.9074C10.7711 21.2983 10.8583 21.7028 11.0617 21.8203C11.2585 21.9348 11.6483 21.8102 12.0247 21.6898C12.3269 21.5755 12.6446 21.5069 12.9671 21.4865Z" fill="#1E81CE"/>
<path d="M13.029 14.7188C12.7196 14.7183 12.4189 14.6157 12.1736 14.427C11.9284 14.2382 11.7522 13.9739 11.6725 13.6749C11.5927 13.3758 11.6139 13.0589 11.7326 12.7731C11.8513 12.4873 12.061 12.2486 12.3291 12.0941C12.5972 11.9396 12.9088 11.8778 13.2156 11.9184C13.5224 11.959 13.8073 12.0996 14.026 12.3185C14.2448 12.5374 14.3852 12.8224 14.4255 13.1292C14.4658 13.4361 14.4038 13.7476 14.2491 14.0156C14.1572 14.1759 14.0344 14.3163 13.8878 14.4288C13.7412 14.5413 13.5738 14.6236 13.3952 14.6709C13.2758 14.7028 13.1527 14.7188 13.029 14.7188ZM13.0327 12.4688C12.9586 12.4685 12.8847 12.478 12.813 12.4969C12.6791 12.5329 12.5562 12.6014 12.455 12.6963C12.3539 12.7912 12.2777 12.9095 12.2332 13.0408C12.1887 13.1722 12.1773 13.3125 12.1999 13.4493C12.2225 13.5861 12.2785 13.7152 12.3629 13.8252C12.4473 13.9353 12.5576 14.0228 12.6839 14.0801C12.8102 14.1373 12.9486 14.1626 13.087 14.1536C13.2254 14.1446 13.3594 14.1017 13.4772 14.0285C13.5951 13.9554 13.6931 13.8544 13.7625 13.7344C13.8366 13.6062 13.8755 13.4608 13.8756 13.3127C13.8756 13.1647 13.8367 13.0192 13.7628 12.891C13.6888 12.7628 13.5824 12.6562 13.4543 12.5821C13.3261 12.508 13.1807 12.4689 13.0327 12.4688ZM16.9665 18.0938C16.6088 18.0939 16.2643 17.9579 16.0031 17.7134C15.7418 17.4689 15.5834 17.1343 15.5598 16.7773C15.5362 16.4203 15.6493 16.0676 15.8761 15.7909C16.103 15.5142 16.4265 15.3342 16.7812 15.2872C17.1359 15.2403 17.4952 15.33 17.7862 15.5382C18.0771 15.7464 18.278 16.0575 18.3481 16.4083C18.4182 16.7592 18.3522 17.1236 18.1636 17.4276C17.9749 17.7316 17.6777 17.9524 17.3322 18.0454C17.2129 18.0773 17.09 18.0936 16.9665 18.0938ZM16.9702 15.8438C16.8961 15.8435 16.8222 15.853 16.7505 15.8719C16.5445 15.9266 16.3669 16.0576 16.2539 16.2384C16.1408 16.4191 16.1007 16.6361 16.1417 16.8453C16.1827 17.0546 16.3017 17.2404 16.4746 17.3651C16.6475 17.4899 16.8614 17.5442 17.0728 17.5171C17.2843 17.49 17.4776 17.3836 17.6135 17.2193C17.7494 17.055 17.8177 16.8452 17.8046 16.6324C17.7916 16.4196 17.6981 16.2197 17.5432 16.0733C17.3882 15.9268 17.1834 15.8448 16.9702 15.8438Z" fill="#1E81CE"/>
<path d="M15 20.3438C13.9431 20.3438 12.9099 20.0303 12.0312 19.4432C11.1524 18.856 10.4675 18.0214 10.063 17.045C9.65857 16.0685 9.55274 14.9941 9.75893 13.9575C9.96512 12.9209 10.4741 11.9687 11.2214 11.2214C11.9687 10.4741 12.9209 9.96512 13.9575 9.75893C14.9941 9.55274 16.0685 9.65857 17.045 10.063C18.0214 10.4675 18.856 11.1524 19.4432 12.0312C20.0303 12.9099 20.3438 13.9431 20.3438 15C20.3422 16.4168 19.7787 17.7751 18.7769 18.7769C17.7751 19.7787 16.4168 20.3422 15 20.3438ZM15 10.2188C14.0544 10.2188 13.13 10.4992 12.3437 11.0245C11.5574 11.5499 10.9446 12.2966 10.5827 13.1703C10.2208 14.044 10.1261 15.0053 10.3106 15.9328C10.4951 16.8602 10.9505 17.7122 11.6191 18.3809C12.2878 19.0495 13.1398 19.5049 14.0672 19.6894C14.9947 19.8739 15.956 19.7792 16.8297 19.4173C17.7034 19.0554 18.4501 18.4426 18.9755 17.6563C19.5008 16.87 19.7813 15.9456 19.7813 15C19.7798 13.7324 19.2756 12.5171 18.3793 11.6207C17.4829 10.7244 16.2676 10.2202 15 10.2188Z" fill="#1E81CE"/>
<path d="M12.6141 18.2302C12.5033 18.2305 12.3935 18.2089 12.2911 18.1665C12.1887 18.1241 12.0957 18.0618 12.0175 17.9832C11.8594 17.825 11.7705 17.6104 11.7705 17.3867C11.7705 17.163 11.8594 16.9484 12.0175 16.7902L16.7904 12.0174C16.8682 11.9368 16.9613 11.8725 17.0642 11.8283C17.1672 11.784 17.2779 11.7608 17.3899 11.7598C17.502 11.7588 17.6131 11.7802 17.7168 11.8226C17.8205 11.865 17.9147 11.9277 17.9939 12.0069C18.0731 12.0861 18.1358 12.1803 18.1782 12.284C18.2206 12.3877 18.242 12.4988 18.241 12.6108C18.24 12.7229 18.2167 12.8336 18.1725 12.9365C18.1283 13.0395 18.064 13.1326 17.9834 13.2104L13.2106 17.9832C13.1324 18.0618 13.0395 18.1241 12.9371 18.1664C12.8347 18.2088 12.7249 18.2305 12.6141 18.2302ZM17.3869 12.3324C17.3123 12.3324 17.2408 12.362 17.188 12.4148L12.4152 17.1876C12.3625 17.2403 12.3329 17.3118 12.3329 17.3864C12.3329 17.461 12.3625 17.5325 12.4152 17.5853C12.4687 17.6364 12.5399 17.665 12.6139 17.665C12.688 17.665 12.7591 17.6364 12.8126 17.5853L17.5857 12.8124C17.6251 12.7731 17.6518 12.723 17.6627 12.6685C17.6735 12.6139 17.668 12.5574 17.6467 12.506C17.6254 12.4546 17.5894 12.4107 17.5431 12.3798C17.4969 12.3489 17.4425 12.3324 17.3869 12.3324Z" fill="#1E81CE"/>
</g>
</g>
<defs>
<clipPath id="clip0_195_1863">
<rect width="18" height="18" fill="white" transform="translate(6 6)"/>
</clipPath>
<clipPath id="clip1_195_1863">
<rect width="18" height="18" fill="white" transform="translate(6 6)"/>
</clipPath>
</defs>
</svg>
