<svg width="30" height="30" viewBox="0 0 30 30" fill="none" xmlns="http://www.w3.org/2000/svg">
<circle cx="15" cy="15" r="14.5" fill="white" stroke="#E5E9EB"/>
<g clip-path="url(#clip0_195_2416)">
<path d="M21.9328 6.61035H11.1553C10.3959 6.61035 9.77437 7.17566 9.67031 7.90691C7.90688 8.2191 6.5625 9.75754 6.5625 11.6082C6.5625 13.4588 7.89844 14.986 9.65062 15.3066V21.885C9.65062 22.7147 10.3256 23.3897 11.1553 23.3897H21.9328C22.7625 23.3897 23.4375 22.7147 23.4375 21.885V8.11504C23.4375 7.28535 22.7625 6.61035 21.9328 6.61035ZM7.125 11.6082C7.125 9.94035 8.41031 8.56785 10.0416 8.42441V11.6082C10.0416 11.6222 10.0472 11.6363 10.05 11.6475C10.0528 11.6672 10.0556 11.6869 10.0612 11.7066C10.0697 11.7263 10.0809 11.7432 10.0922 11.76C10.1006 11.7713 10.1034 11.7854 10.1119 11.7938L12.2438 14.1563C11.7066 14.5613 11.0428 14.806 10.32 14.806C8.55656 14.806 7.12219 13.3716 7.12219 11.6082H7.125ZM10.6041 11.3269V8.42441C12.1425 8.55941 13.3716 9.78848 13.5066 11.3269H10.6041ZM22.875 21.885C22.875 22.4054 22.4531 22.8272 21.9328 22.8272H11.1553C10.9054 22.8272 10.6658 22.728 10.4891 22.5513C10.3124 22.3746 10.2131 22.1349 10.2131 21.885V15.3657C10.2497 15.3657 10.2863 15.3713 10.3256 15.3713C11.2847 15.3713 12.1566 15.0085 12.8203 14.4179C12.8288 14.4122 12.8372 14.4094 12.8456 14.4038C12.8541 14.3982 12.8569 14.3869 12.8625 14.3813C13.6134 13.6922 14.0859 12.7079 14.0859 11.611C14.0859 9.53816 12.3984 7.85066 10.3256 7.85066C10.3031 7.85066 10.2806 7.85348 10.2581 7.85348C10.3148 7.65842 10.4331 7.48697 10.5953 7.36478C10.7576 7.24259 10.955 7.17624 11.1581 7.17566H21.9328C22.4531 7.17566 22.875 7.59754 22.875 8.11785V21.885ZM20.6363 8.73098C20.4675 8.43848 20.1666 8.2641 19.8263 8.2641C19.4859 8.2641 19.1878 8.43848 19.0162 8.73098L17.6606 11.0794C17.4919 11.3719 17.4919 11.7207 17.6606 12.0132C17.7406 12.1546 17.8567 12.2723 17.997 12.3544C18.1373 12.4364 18.2969 12.4797 18.4594 12.48V14.37C18.3722 14.3391 18.2766 14.3194 18.1781 14.3194H17.1347C16.6706 14.3194 16.2909 14.6991 16.2909 15.1632V16.6369C16.2037 16.606 16.1081 16.5863 16.0097 16.5863H14.9662C14.5022 16.5863 14.1225 16.966 14.1225 17.43V18.2429C14.0353 18.2119 13.9397 18.1922 13.8412 18.1922H12.7978C12.3338 18.1922 11.9541 18.5719 11.9541 19.036V21.0244C11.9541 21.4885 12.3338 21.8682 12.7978 21.8682H13.8412C14.0578 21.8682 14.2547 21.7838 14.4037 21.6488C14.5528 21.7838 14.7497 21.8682 14.9662 21.8682H16.0097C16.2262 21.8682 16.4231 21.7838 16.5722 21.6488C16.7212 21.7838 16.9181 21.8682 17.1347 21.8682H18.1781C18.3947 21.8682 18.5916 21.7838 18.7406 21.6488C18.8897 21.7838 19.0866 21.8682 19.3031 21.8682H20.3466C20.8106 21.8682 21.1903 21.4885 21.1903 21.0244V12.4772C21.3528 12.4769 21.5124 12.4336 21.6527 12.3515C21.793 12.2695 21.909 12.1518 21.9891 12.0104C22.1578 11.7179 22.1578 11.3691 21.9891 11.0766L20.6334 8.72816L20.6363 8.73098ZM16.2966 21.0216C16.2966 21.1763 16.17 21.3029 16.0153 21.3029H14.9719C14.8172 21.3029 14.6906 21.1763 14.6906 21.0216V17.4272C14.6906 17.2725 14.8172 17.146 14.9719 17.146H16.0153C16.17 17.146 16.2966 17.2725 16.2966 17.4272V21.0216ZM21.5025 11.7291C21.4716 11.7854 21.3731 11.9147 21.1819 11.9147H20.9091C20.7544 11.9147 20.6278 12.0413 20.6278 12.196V21.0216C20.6278 21.1763 20.5012 21.3029 20.3466 21.3029H19.3031C19.1484 21.3029 19.0219 21.1763 19.0219 21.0216V12.196C19.0219 12.0413 18.8953 11.9147 18.7406 11.9147H18.4706C18.2766 11.9147 18.1809 11.7854 18.15 11.7291C18.1191 11.6729 18.0544 11.5266 18.15 11.3579L19.5056 9.00941C19.6012 8.84066 19.7616 8.82379 19.8263 8.82379C19.8909 8.82379 20.0512 8.84066 20.1469 9.00941L21.5025 11.3579C21.5981 11.5266 21.5334 11.6729 21.5025 11.7291Z" fill="url(#paint0_linear_195_2416)"/>
</g>
<defs>
<linearGradient id="paint0_linear_195_2416" x1="6.5625" y1="15" x2="23.4375" y2="15" gradientUnits="userSpaceOnUse">
<stop stop-color="#06C0FF"/>
<stop offset="1" stop-color="#0169C2"/>
</linearGradient>
<clipPath id="clip0_195_2416">
<rect width="18" height="18" fill="white" transform="translate(6 6)"/>
</clipPath>
</defs>
</svg>
