<svg width="30" height="30" viewBox="0 0 30 30" fill="none" xmlns="http://www.w3.org/2000/svg">
<circle cx="15" cy="15" r="14.5" fill="white" stroke="#E5E9EB"/>
<path d="M13.7061 10.3566L9.237 18.0938C9.05053 18.4167 9 18.8006 9.09652 19.1608C9.19304 19.5211 9.42871 19.8282 9.75169 20.0147L14.0154 22.4784C13.9224 22.2468 13.8747 21.9996 13.8748 21.75V12.8147C13.8744 12.0133 14.1849 11.243 14.7411 10.6659L16.5354 8.8125L15.1967 9.18938C14.5675 9.37098 14.0333 9.78933 13.7061 10.3566ZM7.36388 15.4444C7.10025 15.7081 6.95215 16.0657 6.95215 16.4386C6.95215 16.8115 7.10025 17.1691 7.36388 17.4328L8.48888 18.5578C8.52482 18.2943 8.6138 18.0407 8.75044 17.8125C9.40575 16.6875 12.3026 11.6616 13.8748 8.96156C13.6864 9.10781 14.0295 8.78438 7.36388 15.4444ZM18.2933 16.9688H18.3748V15.8438H18.2933C18.1441 15.8438 18.001 15.903 17.8955 16.0085C17.79 16.114 17.7308 16.2571 17.7308 16.4062C17.7308 16.5554 17.79 16.6985 17.8955 16.804C18.001 16.9095 18.1441 16.9688 18.2933 16.9688Z" fill="#9BC9FF"/>
<path d="M20.3438 6.80713C20.2306 7.46921 19.9454 8.08993 19.5169 8.60713C19.3858 8.47233 19.2291 8.36518 19.0559 8.29201C18.8827 8.21884 18.6966 8.18114 18.5086 8.18114C18.3206 8.18114 18.1345 8.21884 17.9613 8.29201C17.7881 8.36518 17.6314 8.47233 17.5003 8.60713L15.1463 11.0624C14.6926 11.5331 14.4386 12.161 14.4375 12.8146V21.7499C14.4375 22.1229 14.5857 22.4806 14.8494 22.7443C15.1131 23.008 15.4708 23.1562 15.8438 23.1562H21.1875C21.5605 23.1562 21.9181 23.008 22.1819 22.7443C22.4456 22.4806 22.5938 22.1229 22.5938 21.7499V12.8146C22.5926 12.161 22.3386 11.5331 21.885 11.0624L20.3072 9.42557C19.9546 9.80936 19.524 10.1133 19.0444 10.3171C19.0098 10.4143 18.9492 10.5001 18.8692 10.5652C18.7892 10.6302 18.6928 10.672 18.5906 10.686C18.4884 10.7 18.3844 10.6856 18.2898 10.6444C18.1952 10.6032 18.1138 10.5369 18.0545 10.4525C17.9951 10.3682 17.96 10.2692 17.9531 10.1663C17.9462 10.0634 17.9678 9.96055 18.0154 9.86906C18.063 9.77757 18.1348 9.70092 18.2231 9.64751C18.3113 9.59409 18.4125 9.56596 18.5156 9.56619C18.5936 9.56677 18.6707 9.58357 18.7419 9.61552C18.813 9.64748 18.8768 9.6939 18.9291 9.75182C19.1019 9.67429 19.2667 9.58009 19.4213 9.47057C19.5983 9.3375 19.7639 9.1898 19.9162 9.029C20.442 8.4192 20.7852 7.67346 20.9062 6.87744L20.3438 6.80713ZM18.2934 15.2812H18.375V14.5978H18.9375V15.2812H19.0191C19.3174 15.2812 19.6036 15.3997 19.8146 15.6107C20.0255 15.8217 20.1441 16.1078 20.1441 16.4062H19.5816C19.5816 16.257 19.5223 16.1139 19.4168 16.0084C19.3113 15.903 19.1682 15.8437 19.0191 15.8437H18.9375V16.9687H19.0191C19.3174 16.9687 19.6036 17.0872 19.8146 17.2982C20.0255 17.5092 20.1441 17.7953 20.1441 18.0937C20.1441 18.3921 20.0255 18.6782 19.8146 18.8892C19.6036 19.1002 19.3174 19.2187 19.0191 19.2187H18.9375V19.9021H18.375V19.2187H18.2934C17.9951 19.2187 17.7089 19.1002 17.4979 18.8892C17.287 18.6782 17.1684 18.3921 17.1684 18.0937H17.7309C17.7309 18.2429 17.7902 18.386 17.8957 18.4914C18.0012 18.5969 18.1443 18.6562 18.2934 18.6562H18.375V17.5312H18.2934C17.9951 17.5312 17.7089 17.4127 17.4979 17.2017C17.287 16.9907 17.1684 16.7046 17.1684 16.4062C17.1684 16.1078 17.287 15.8217 17.4979 15.6107C17.7089 15.3997 17.9951 15.2812 18.2934 15.2812Z" fill="#9BC9FF"/>
<path d="M19.5816 18.0938C19.5816 17.9446 19.5223 17.8015 19.4168 17.696C19.3113 17.5905 19.1682 17.5312 19.0191 17.5312H18.9375V18.6562H19.0191C19.1682 18.6562 19.3113 18.597 19.4168 18.4915C19.5223 18.386 19.5816 18.2429 19.5816 18.0938Z" fill="#9BC9FF"/>
</svg>
