<svg width="30" height="30" viewBox="0 0 30 30" fill="none" xmlns="http://www.w3.org/2000/svg">
<circle cx="15" cy="15" r="14.5" fill="white" stroke="#E5E9EB"/>
<g clip-path="url(#clip0_195_2538)">
<path d="M7.96875 12.0227V13.0313H12.9148L9.93722 10.0537L7.96875 12.0227Z" fill="#9BC9FF"/>
<path d="M7.96875 11.2273L9.73837 9.45712C9.79211 9.40631 9.86326 9.378 9.93722 9.378C10.0112 9.378 10.0823 9.40631 10.1361 9.45712L11.0625 10.3836L12.8324 8.61366C12.8851 8.56093 12.9567 8.53131 13.0312 8.53131C13.1058 8.53131 13.1774 8.56093 13.2301 8.61366L14.1562 9.53981V7.96875H7.96875V11.2273Z" fill="#9BC9FF"/>
<path d="M11.4604 10.7813L13.7104 13.0313H14.1564V10.3352L13.0314 9.21021L11.4604 10.7813ZM18.4008 19.0264C18.3695 19.0059 18.3426 18.9794 18.3217 18.9485C18.3007 18.9175 18.2862 18.8826 18.2789 18.846C18.2716 18.8093 18.2717 18.7716 18.2791 18.7349C18.2866 18.6983 18.3013 18.6635 18.3223 18.6326C18.3755 18.5553 18.4084 18.466 18.4182 18.3727C18.428 18.2794 18.4143 18.1851 18.3783 18.0984C18.3424 18.0118 18.2853 17.9355 18.2124 17.8765C18.1394 17.8175 18.0529 17.7778 17.9606 17.7608C17.9237 17.754 17.8885 17.74 17.8571 17.7195C17.8257 17.699 17.7987 17.6724 17.7778 17.6413C17.7568 17.6101 17.7423 17.5752 17.735 17.5383C17.7278 17.5015 17.728 17.4637 17.7356 17.4269C17.7554 17.3354 17.7519 17.2403 17.7255 17.1504C17.6991 17.0606 17.6505 16.9788 17.5843 16.9126C17.518 16.8463 17.4362 16.7978 17.3464 16.7713C17.2565 16.7449 17.1614 16.7414 17.0699 16.7612C17.0333 16.769 16.9955 16.7694 16.9588 16.7622C16.922 16.7551 16.8871 16.7406 16.8561 16.7196C16.8251 16.6988 16.7984 16.672 16.7778 16.6408C16.7572 16.6096 16.743 16.5746 16.7361 16.5379C16.719 16.4459 16.6792 16.3596 16.6204 16.2868C16.5615 16.214 16.4854 16.1571 16.399 16.1211C16.3126 16.0852 16.2186 16.0714 16.1255 16.081C16.0324 16.0905 15.9432 16.1232 15.8659 16.1759C15.835 16.197 15.8002 16.2117 15.7636 16.2192C15.727 16.2266 15.6892 16.2267 15.6526 16.2195C15.6159 16.2122 15.5811 16.1977 15.5501 16.1768C15.5191 16.1559 15.4926 16.129 15.4721 16.0977C15.4206 16.0191 15.3502 15.9545 15.2675 15.9099C15.1848 15.8652 15.0922 15.8418 14.9982 15.8418C14.9042 15.8418 14.8116 15.8652 14.7289 15.9099C14.6462 15.9545 14.5759 16.0191 14.5243 16.0977C14.5038 16.129 14.4773 16.1559 14.4463 16.1768C14.4153 16.1977 14.3805 16.2122 14.3438 16.2195C14.3072 16.2267 14.2694 16.2266 14.2328 16.2192C14.1962 16.2117 14.1614 16.197 14.1306 16.1759C14.0533 16.1232 13.964 16.0905 13.8709 16.081C13.7778 16.0714 13.6838 16.0852 13.5974 16.1211C13.511 16.1571 13.4349 16.214 13.3761 16.2868C13.3172 16.3596 13.2774 16.4459 13.2604 16.5379C13.2534 16.5746 13.2393 16.6097 13.2187 16.6409C13.1981 16.6721 13.1714 16.6989 13.1403 16.7197C13.1093 16.7405 13.0743 16.7548 13.0376 16.762C13.0009 16.7691 12.9631 16.7688 12.9265 16.7612C12.835 16.7414 12.7399 16.7449 12.65 16.7713C12.5602 16.7978 12.4784 16.8463 12.4121 16.9126C12.3459 16.9788 12.2974 17.0606 12.2709 17.1504C12.2445 17.2403 12.241 17.3354 12.2608 17.4269C12.2684 17.4636 12.2687 17.5013 12.2615 17.5381C12.2544 17.5748 12.24 17.6097 12.2192 17.6408C12.1983 17.6719 12.1715 17.6985 12.1403 17.7191C12.109 17.7397 12.074 17.7539 12.0372 17.7608C11.9449 17.7777 11.8583 17.8175 11.7853 17.8764C11.7124 17.9354 11.6553 18.0117 11.6193 18.0983C11.5833 18.185 11.5696 18.2793 11.5794 18.3726C11.5891 18.4659 11.6221 18.5553 11.6752 18.6326C11.6963 18.6635 11.711 18.6983 11.7185 18.7349C11.726 18.7715 11.7261 18.8093 11.7188 18.8459C11.7115 18.8826 11.697 18.9174 11.6761 18.9484C11.6552 18.9794 11.6283 19.0059 11.5971 19.0264C11.5185 19.0779 11.454 19.1482 11.4093 19.2309C11.3647 19.3136 11.3413 19.4061 11.3413 19.5C11.3413 19.594 11.3647 19.6865 11.4093 19.7691C11.454 19.8518 11.5185 19.9221 11.5971 19.9736C11.6283 19.9941 11.6552 20.0206 11.6761 20.0516C11.697 20.0826 11.7115 20.1175 11.7188 20.1541C11.7261 20.1908 11.726 20.2285 11.7185 20.2651C11.711 20.3018 11.6963 20.3365 11.6752 20.3674C11.6221 20.4447 11.5891 20.5341 11.5794 20.6274C11.5696 20.7208 11.5833 20.815 11.6193 20.9017C11.6553 20.9884 11.7124 21.0646 11.7853 21.1236C11.8583 21.1826 11.9449 21.2223 12.0372 21.2393C12.074 21.2462 12.109 21.2603 12.1403 21.2809C12.1715 21.3015 12.1983 21.3281 12.2192 21.3592C12.24 21.3903 12.2544 21.4252 12.2615 21.462C12.2687 21.4987 12.2684 21.5365 12.2608 21.5731C12.241 21.6647 12.2445 21.7597 12.2709 21.8496C12.2974 21.9395 12.3459 22.0212 12.4121 22.0875C12.4784 22.1537 12.5602 22.2023 12.65 22.2287C12.7399 22.2552 12.835 22.2586 12.9265 22.2388C12.9631 22.2311 13.0009 22.2307 13.0376 22.2379C13.0744 22.245 13.1093 22.2595 13.1403 22.2805C13.1714 22.3012 13.198 22.328 13.2186 22.3592C13.2392 22.3904 13.2534 22.4254 13.2604 22.4621C13.2774 22.5542 13.3172 22.6405 13.3761 22.7132C13.4349 22.786 13.511 22.8429 13.5974 22.8789C13.6838 22.9148 13.7778 22.9286 13.8709 22.9191C13.964 22.9095 14.0533 22.8769 14.1306 22.8241C14.1773 22.7926 14.2325 22.7757 14.2889 22.7757C14.3072 22.7757 14.3255 22.7775 14.3435 22.7811C14.38 22.7883 14.4148 22.8028 14.4458 22.8236C14.4767 22.8444 14.5032 22.8711 14.5237 22.9023C14.5753 22.9809 14.6456 23.0455 14.7283 23.0902C14.8111 23.1348 14.9036 23.1582 14.9976 23.1582C15.0917 23.1582 15.1842 23.1348 15.2669 23.0902C15.3497 23.0455 15.42 22.9809 15.4716 22.9023C15.492 22.871 15.5185 22.8442 15.5495 22.8233C15.5805 22.8024 15.6154 22.7879 15.652 22.7806C15.6887 22.7733 15.7264 22.7734 15.763 22.7809C15.7997 22.7884 15.8344 22.803 15.8653 22.8241C15.9426 22.8769 16.0318 22.9095 16.1249 22.9191C16.218 22.9286 16.3121 22.9148 16.3985 22.8789C16.4849 22.8429 16.561 22.786 16.6198 22.7132C16.6787 22.6405 16.7184 22.5542 16.7355 22.4621C16.7424 22.4254 16.7566 22.3904 16.7772 22.3592C16.7979 22.328 16.8245 22.3012 16.8556 22.2805C16.8865 22.2594 16.9215 22.2449 16.9582 22.2377C16.9949 22.2306 17.0327 22.231 17.0693 22.2388C17.1609 22.2586 17.2559 22.2552 17.3458 22.2287C17.4357 22.2023 17.5175 22.1537 17.5837 22.0875C17.6499 22.0212 17.6985 21.9395 17.7249 21.8496C17.7514 21.7597 17.7549 21.6647 17.7351 21.5731C17.7274 21.5364 17.7272 21.4985 17.7345 21.4617C17.7417 21.4249 17.7562 21.3899 17.7772 21.3588C17.7982 21.3277 17.8252 21.3011 17.8566 21.2805C17.888 21.26 17.9231 21.246 17.9601 21.2393C18.0523 21.2223 18.1389 21.1825 18.2118 21.1235C18.2848 21.0645 18.3418 20.9883 18.3778 20.9016C18.4137 20.8149 18.4274 20.7207 18.4176 20.6274C18.4079 20.5341 18.3749 20.4447 18.3217 20.3674C18.3007 20.3365 18.286 20.3017 18.2786 20.2651C18.2711 20.2285 18.271 20.1907 18.2783 20.154C18.2856 20.1174 18.3002 20.0826 18.3211 20.0516C18.342 20.0206 18.3689 19.9941 18.4002 19.9736C18.4788 19.9221 18.5433 19.8518 18.5879 19.7691C18.6326 19.6865 18.656 19.594 18.656 19.5C18.656 19.4061 18.6326 19.3136 18.5879 19.2309C18.5433 19.1482 18.4788 19.0779 18.4002 19.0264H18.4008ZM17.7303 18.8551L14.6365 21.9489C14.5838 22.0016 14.5123 22.0312 14.4377 22.0312C14.3631 22.0312 14.2916 22.0016 14.2388 21.9489L12.2701 19.9801C12.2222 19.9322 12.1932 19.8687 12.1884 19.8012C12.1836 19.7337 12.2033 19.6667 12.2439 19.6125L13.0877 18.4875C13.1119 18.4553 13.1427 18.4286 13.1781 18.4093C13.2134 18.3901 13.2525 18.3786 13.2927 18.3758C13.3329 18.3729 13.3733 18.3787 13.411 18.3928C13.4488 18.4069 13.483 18.4289 13.5115 18.4574L14.4377 19.3836L16.4888 17.3324C16.5173 17.3039 16.5516 17.2819 16.5894 17.2678C16.6271 17.2537 16.6674 17.2479 16.7076 17.2508C16.7478 17.2536 16.7869 17.2651 16.8223 17.2843C16.8577 17.3036 16.8885 17.3303 16.9127 17.3625L17.7564 18.4875C17.797 18.5417 17.8167 18.6087 17.8119 18.6762C17.8071 18.7437 17.7781 18.8072 17.7303 18.8551Z" fill="#9BC9FF"/>
<path d="M14.6362 19.98C14.5834 20.0327 14.5119 20.0624 14.4373 20.0624C14.3628 20.0624 14.2912 20.0327 14.2385 19.98L13.3427 19.0842L12.8398 19.7547L14.4373 21.3522L17.1598 18.6297L16.657 17.9592L14.6362 19.98Z" fill="#9BC9FF"/>
<path d="M21.4688 9.09375C21.7794 9.09375 22.0312 8.84191 22.0312 8.53125C22.0312 8.22059 21.7794 7.96875 21.4688 7.96875C21.1581 7.96875 20.9062 8.22059 20.9062 8.53125C20.9062 8.84191 21.1581 9.09375 21.4688 9.09375Z" fill="#9BC9FF"/>
<path d="M20.625 16.6875C20.9357 16.6875 21.1875 16.4357 21.1875 16.125C21.1875 15.8143 20.9357 15.5625 20.625 15.5625C20.3143 15.5625 20.0625 15.8143 20.0625 16.125C20.0625 16.4357 20.3143 16.6875 20.625 16.6875Z" fill="#9BC9FF"/>
<path d="M6.84375 6.84375V18.0938H11.0392C11.0753 17.9171 11.153 17.7517 11.266 17.6112C11.3789 17.4707 11.5238 17.3592 11.6886 17.286C11.6947 16.997 11.8123 16.7216 12.0167 16.5172C12.221 16.3128 12.4965 16.1953 12.7854 16.1891C12.9026 15.9249 13.1167 15.7156 13.3836 15.6046C13.6505 15.4936 13.9498 15.4893 14.2198 15.5926C14.4298 15.3929 14.7085 15.2816 14.9983 15.2816C15.2881 15.2816 15.5668 15.3929 15.7768 15.5926C16.0468 15.4892 16.3462 15.4934 16.6131 15.6044C16.8801 15.7154 17.0942 15.9248 17.2112 16.1891C17.5002 16.1953 17.7756 16.3128 17.98 16.5172C18.1843 16.7216 18.3019 16.997 18.3081 17.286C18.4731 17.3592 18.6185 17.4707 18.732 17.6111C18.8455 17.7516 18.9241 17.917 18.9611 18.0938H23.1562V6.84375H6.84375ZM10.5 17.5312H7.40625V16.9688H10.5V17.5312ZM10.5 16.4062H7.40625V15.8438H10.5V16.4062ZM10.5 15.2812H7.40625V14.7188H10.5V15.2812ZM21.4688 9.65625C21.2201 9.65532 20.9787 9.57201 20.7824 9.41935C20.5861 9.2667 20.4459 9.05329 20.3837 8.8125H19.0312L17.9812 9.6C17.9326 9.63651 17.8734 9.65625 17.8125 9.65625H14.7188V10.2188H16.9688C17.0296 10.2188 17.0888 10.2385 17.1375 10.275L18.1874 11.0625H19.5399C19.6084 10.7974 19.7712 10.5663 19.9978 10.4126C20.2244 10.259 20.4993 10.1932 20.771 10.2277C21.0426 10.2622 21.2923 10.3946 21.4733 10.6001C21.6544 10.8055 21.7542 11.0699 21.7542 11.3438C21.7542 11.6176 21.6544 11.882 21.4733 12.0874C21.2923 12.2929 21.0426 12.4253 20.771 12.4598C20.4993 12.4943 20.2244 12.4285 19.9978 12.2749C19.7712 12.1212 19.6084 11.8901 19.5399 11.625H18.0938C18.0329 11.625 17.9737 11.6053 17.925 11.5687L16.8751 10.7812H14.7188V12.1875H16.9688C17.0213 12.1872 17.0728 12.2016 17.1175 12.2291C17.1623 12.2566 17.1984 12.2961 17.2219 12.343L17.7051 13.3125H20.625C20.6996 13.3125 20.7711 13.3421 20.8239 13.3949C20.8766 13.4476 20.9062 13.5192 20.9062 13.5938V15.0399C21.1714 15.1084 21.4024 15.2712 21.5561 15.4978C21.7098 15.7244 21.7755 15.9993 21.741 16.271C21.7065 16.5426 21.5741 16.7923 21.3687 16.9733C21.1632 17.1544 20.8988 17.2542 20.625 17.2542C20.3512 17.2542 20.0868 17.1544 19.8813 16.9733C19.6759 16.7923 19.5435 16.5426 19.509 16.271C19.4745 15.9993 19.5402 15.7244 19.6939 15.4978C19.8476 15.2712 20.0786 15.1084 20.3438 15.0399V13.875H17.5312C17.4787 13.8753 17.4272 13.8609 17.3825 13.8334C17.3377 13.8059 17.3016 13.7664 17.2781 13.7195L16.7949 12.75H14.7188V13.3125C14.7188 13.3871 14.6891 13.4586 14.6364 13.5114C14.5836 13.5641 14.5121 13.5938 14.4375 13.5938H7.6875C7.61291 13.5938 7.54137 13.5641 7.48863 13.5114C7.43588 13.4586 7.40625 13.3871 7.40625 13.3125V7.6875C7.40625 7.61291 7.43588 7.54137 7.48863 7.48863C7.54137 7.43588 7.61291 7.40625 7.6875 7.40625H14.4375C14.5121 7.40625 14.5836 7.43588 14.6364 7.48863C14.6891 7.54137 14.7188 7.61291 14.7188 7.6875V9.09375H17.7188L18.7688 8.30625C18.8174 8.26974 18.8766 8.25 18.9375 8.25H20.3837C20.4366 8.04678 20.5455 7.86248 20.698 7.71804C20.8504 7.57359 21.0403 7.47478 21.2461 7.43282C21.4519 7.39087 21.6653 7.40746 21.8621 7.4807C22.0589 7.55394 22.2313 7.68091 22.3595 7.84717C22.4878 8.01344 22.5669 8.21235 22.5879 8.42131C22.6088 8.63027 22.5707 8.84092 22.4779 9.02932C22.3852 9.21773 22.2414 9.37634 22.063 9.48716C21.8846 9.59798 21.6788 9.65656 21.4688 9.65625Z" fill="#9BC9FF"/>
<path d="M20.625 11.9062C20.9357 11.9062 21.1875 11.6544 21.1875 11.3438C21.1875 11.0331 20.9357 10.7812 20.625 10.7812C20.3143 10.7812 20.0625 11.0331 20.0625 11.3438C20.0625 11.6544 20.3143 11.9062 20.625 11.9062Z" fill="#9BC9FF"/>
</g>
<defs>
<clipPath id="clip0_195_2538">
<rect width="18" height="18" fill="white" transform="translate(6 6)"/>
</clipPath>
</defs>
</svg>
