<svg width="30" height="30" viewBox="0 0 30 30" fill="none" xmlns="http://www.w3.org/2000/svg">
<circle cx="15" cy="15" r="14.5" fill="white" stroke="#E5E9EB"/>
<g clip-path="url(#clip0_195_2644)">
<path d="M8.06796 17.4201C7.82644 17.4433 7.64925 17.6575 7.67245 17.899C7.6939 18.1264 7.8855 18.2969 8.10944 18.2969C8.12316 18.2969 8.13722 18.2962 8.15163 18.2948C8.24093 18.2864 10.3654 18.0726 13.0454 16.7733C14.6172 16.0111 16.0544 15.0309 17.3176 13.8599C18.7794 12.5046 20.0088 10.8892 20.9777 9.05366L21.0308 9.20624C21.0937 9.388 21.2639 9.50191 21.446 9.50191C21.4938 9.50191 21.5423 9.49417 21.5901 9.47765C21.8193 9.39819 21.941 9.14788 21.8612 8.91831L21.4713 7.79472C21.433 7.68461 21.3526 7.5942 21.2477 7.54335C21.1958 7.51812 21.1394 7.5034 21.0818 7.50002C21.0242 7.49664 20.9664 7.50468 20.9119 7.52366L19.7884 7.91355C19.5591 7.993 19.4378 8.24331 19.5173 8.47288C19.5967 8.7021 19.8471 8.82339 20.0766 8.74394L20.1624 8.71405C19.2494 10.4251 18.0994 11.9326 16.7371 13.1993C15.5425 14.3102 14.1823 15.2412 12.6945 15.9664C10.1559 17.2039 8.09609 17.417 8.06796 17.4198V17.4201Z" fill="#9BC9FF"/>
<path d="M11.1986 15.4303C13.5319 15.4303 15.4303 13.5319 15.4303 11.1986C15.4303 8.86523 13.5319 6.9668 11.1986 6.9668C8.86523 6.9668 6.9668 8.86523 6.9668 11.1986C6.9668 13.5319 8.86523 15.4303 11.1986 15.4303ZM11.1986 7.84605C13.0471 7.84605 14.5514 9.35004 14.5514 11.1989C14.5514 13.0478 13.0474 14.5518 11.1986 14.5518C9.34969 14.5518 7.8457 13.0478 7.8457 11.1989C7.8457 9.35004 9.34969 7.84605 11.1986 7.84605Z" fill="#9BC9FF"/>
<path d="M11.1164 11.6303C11.1625 11.6391 11.5654 11.7217 11.5654 11.9442C11.5654 12.113 11.4008 12.2504 11.1983 12.2504C11.0468 12.2504 10.9087 12.1703 10.8545 12.0511C10.754 11.8303 10.4935 11.7326 10.2727 11.8331C10.0519 11.9337 9.95416 12.1942 10.0547 12.415C10.1915 12.7155 10.4488 12.9419 10.7592 13.053V13.3325C10.7592 13.5751 10.9561 13.772 11.1987 13.772C11.4413 13.772 11.6381 13.5751 11.6381 13.3325V13.053C12.1089 12.8836 12.4446 12.4508 12.4446 11.9442C12.4446 11.3627 11.9876 10.9008 11.2806 10.7665C11.2346 10.7577 10.8317 10.6751 10.8317 10.4525C10.8317 10.2834 10.9962 10.1463 11.1987 10.1463C11.3502 10.1463 11.4884 10.2265 11.5425 10.346C11.6431 10.5668 11.9032 10.6645 12.1244 10.564C12.3451 10.4634 12.4429 10.2029 12.3423 9.98214C12.2056 9.68155 11.9482 9.45479 11.6378 9.3437V9.06421C11.6378 8.82163 11.4409 8.62476 11.1983 8.62476C10.9558 8.62476 10.7589 8.82163 10.7589 9.06421V9.3437C10.2881 9.51315 9.9524 9.94628 9.9524 10.4525C9.9524 11.0337 10.4094 11.496 11.1168 11.6299L11.1164 11.6303ZM22.5935 22.1543H21.2752V15.4932C21.2752 14.4755 20.4472 13.6475 19.4295 13.6475C18.4117 13.6475 17.5838 14.4755 17.5838 15.4932V22.1543H16.8458V18.728C16.8458 17.7102 16.0179 16.8823 15.0001 16.8823C13.9824 16.8823 13.1544 17.7102 13.1544 18.728V22.1543H12.4165V20.4155C12.4165 19.3977 11.5886 18.5698 10.5708 18.5698C9.55303 18.5698 8.7251 19.3977 8.7251 20.4155V22.1543H7.40674C7.16416 22.1543 6.96729 22.3512 6.96729 22.5937C6.96729 22.8363 7.16416 23.0332 7.40674 23.0332H22.5939C22.8365 23.0332 23.0333 22.8363 23.0333 22.5937C23.0333 22.3512 22.8365 22.1543 22.5939 22.1543H22.5935Z" fill="#9BC9FF"/>
</g>
<defs>
<clipPath id="clip0_195_2644">
<rect width="18" height="18" fill="white" transform="translate(6 6)"/>
</clipPath>
</defs>
</svg>
