<svg width="30" height="30" viewBox="0 0 30 30" fill="none" xmlns="http://www.w3.org/2000/svg">
<circle cx="15" cy="15" r="14.5" fill="white" stroke="#E5E9EB"/>
<path d="M9.375 19.2188H10.5003V20.0625H9.375V19.2188ZM19.7812 16.6875C19.1694 16.6875 18.5712 16.8689 18.0625 17.2089C17.5537 17.5488 17.1572 18.032 16.923 18.5973C16.6888 19.1626 16.6276 19.7847 16.7469 20.3848C16.8663 20.9849 17.161 21.5362 17.5936 21.9689C18.0263 22.4015 18.5776 22.6962 19.1777 22.8156C19.7778 22.9349 20.3999 22.8737 20.9652 22.6395C21.5305 22.4053 22.0137 22.0088 22.3536 21.5C22.6936 20.9913 22.875 20.3931 22.875 19.7812C22.874 18.961 22.5478 18.1747 21.9678 17.5947C21.3878 17.0147 20.6015 16.6885 19.7812 16.6875ZM21.804 18.9999L19.4176 21.3863C19.3649 21.4391 19.2933 21.4687 19.2188 21.4687C19.1442 21.4687 19.0726 21.4391 19.0199 21.3863L17.8268 20.193C17.7756 20.14 17.7473 20.0689 17.7479 19.9952C17.7485 19.9214 17.7781 19.8509 17.8303 19.7987C17.8824 19.7466 17.953 19.717 18.0267 19.7164C18.1004 19.7157 18.1715 19.7441 18.2245 19.7953L19.2188 20.7898L21.4063 18.6022C21.4594 18.551 21.5304 18.5227 21.6041 18.5233C21.6779 18.524 21.7484 18.5535 21.8006 18.6057C21.8527 18.6578 21.8823 18.7284 21.8829 18.8021C21.8836 18.8758 21.8552 18.9469 21.804 18.9999ZM12.75 14.1562H13.8753V15H12.75V14.1562ZM16.125 14.1562H17.25V15H16.125V14.1562ZM9.375 16.6875H10.5003V17.5312H9.375V16.6875ZM12.75 16.6875H13.8753V17.5312H12.75V16.6875ZM9.375 14.1562H10.5003V15H9.375V14.1562ZM10.5 9.9375C10.649 9.93705 10.7919 9.87765 10.8973 9.77226C11.0026 9.66686 11.0621 9.52405 11.0625 9.375V7.6875C11.0625 7.53832 11.0032 7.39524 10.8977 7.28975C10.7923 7.18426 10.6492 7.125 10.5 7.125C10.3508 7.125 10.2077 7.18426 10.1023 7.28975C9.99676 7.39524 9.9375 7.53832 9.9375 7.6875V9.375C9.93795 9.52405 9.99735 9.66686 10.1027 9.77226C10.2081 9.87765 10.351 9.93705 10.5 9.9375ZM15 9.9375C15.149 9.93705 15.2919 9.87765 15.3973 9.77226C15.5026 9.66686 15.5621 9.52405 15.5625 9.375V7.6875C15.5625 7.53832 15.5032 7.39524 15.3977 7.28975C15.2923 7.18426 15.1492 7.125 15 7.125C14.8508 7.125 14.7077 7.18426 14.6023 7.28975C14.4968 7.39524 14.4375 7.53832 14.4375 7.6875V9.375C14.4379 9.52405 14.4974 9.66686 14.6027 9.77226C14.7081 9.87765 14.851 9.93705 15 9.9375ZM19.5 9.9375C19.649 9.93705 19.7919 9.87765 19.8973 9.77226C20.0026 9.66686 20.0621 9.52405 20.0625 9.375V7.6875C20.0625 7.53832 20.0032 7.39524 19.8977 7.28975C19.7923 7.18426 19.6492 7.125 19.5 7.125C19.3508 7.125 19.2077 7.18426 19.1023 7.28975C18.9968 7.39524 18.9375 7.53832 18.9375 7.6875V9.375C18.9379 9.52405 18.9974 9.66686 19.1027 9.77226C19.2081 9.87765 19.351 9.93705 19.5 9.9375ZM19.5 14.1562H20.625V15H19.5V14.1562Z" fill="#9BC9FF"/>
<path d="M22.0312 8.8125H20.625V9.375C20.625 9.67337 20.5065 9.95952 20.2955 10.1705C20.0845 10.3815 19.7984 10.5 19.5 10.5C19.2016 10.5 18.9155 10.3815 18.7045 10.1705C18.4935 9.95952 18.375 9.67337 18.375 9.375V8.8125H16.125V9.375C16.125 9.67337 16.0065 9.95952 15.7955 10.1705C15.5845 10.3815 15.2984 10.5 15 10.5C14.7016 10.5 14.4155 10.3815 14.2045 10.1705C13.9935 9.95952 13.875 9.67337 13.875 9.375V8.8125H11.625V9.375C11.625 9.67337 11.5065 9.95952 11.2955 10.1705C11.0845 10.3815 10.7984 10.5 10.5 10.5C10.2016 10.5 9.91548 10.3815 9.7045 10.1705C9.49353 9.95952 9.375 9.67337 9.375 9.375V8.8125H7.96875C7.74518 8.81317 7.53096 8.90228 7.37287 9.06037C7.21478 9.21846 7.12567 9.43268 7.125 9.65625V11.625H22.875V9.65625C22.8743 9.43268 22.7852 9.21846 22.6271 9.06037C22.469 8.90228 22.2548 8.81317 22.0312 8.8125ZM12.75 19.2188H13.8753V20.0625H12.75V19.2188Z" fill="#9BC9FF"/>
<path d="M7.125 12.1875V20.9062C7.12567 21.1298 7.21478 21.344 7.37287 21.5021C7.53096 21.6602 7.74518 21.7493 7.96875 21.75H16.7052C16.4485 21.3449 16.2741 20.8932 16.192 20.4207C16.1099 19.9482 16.1216 19.4641 16.2266 18.9961C16.3315 18.5282 16.5276 18.0855 16.8037 17.6933C17.0797 17.3011 17.4303 16.9671 17.8354 16.7104C18.2405 16.4537 18.6922 16.2793 19.1647 16.1972C19.6373 16.1151 20.1213 16.1268 20.5893 16.2318C21.0573 16.3367 21.5 16.5328 21.8922 16.8089C22.2843 17.0849 22.6183 17.4355 22.875 17.8406V12.1875H7.125ZM11.0625 20.0625C11.0625 20.2117 11.0032 20.3548 10.8977 20.4602C10.7923 20.5657 10.6492 20.625 10.5 20.625H9.375C9.22582 20.625 9.08274 20.5657 8.97725 20.4602C8.87176 20.3548 8.8125 20.2117 8.8125 20.0625V19.2188C8.8125 19.0696 8.87176 18.9265 8.97725 18.821C9.08274 18.7155 9.22582 18.6562 9.375 18.6562H10.5C10.6492 18.6562 10.7923 18.7155 10.8977 18.821C11.0032 18.9265 11.0625 19.0696 11.0625 19.2188V20.0625ZM11.0625 17.5312C11.0625 17.6804 11.0032 17.8235 10.8977 17.929C10.7923 18.0345 10.6492 18.0938 10.5 18.0938H9.375C9.22582 18.0938 9.08274 18.0345 8.97725 17.929C8.87176 17.8235 8.8125 17.6804 8.8125 17.5312V16.6875C8.8125 16.5383 8.87176 16.3952 8.97725 16.2898C9.08274 16.1843 9.22582 16.125 9.375 16.125H10.5C10.6492 16.125 10.7923 16.1843 10.8977 16.2898C11.0032 16.3952 11.0625 16.5383 11.0625 16.6875V17.5312ZM11.0625 15C11.0625 15.1492 11.0032 15.2923 10.8977 15.3977C10.7923 15.5032 10.6492 15.5625 10.5 15.5625H9.375C9.22582 15.5625 9.08274 15.5032 8.97725 15.3977C8.87176 15.2923 8.8125 15.1492 8.8125 15V14.1562C8.8125 14.0071 8.87176 13.864 8.97725 13.7585C9.08274 13.653 9.22582 13.5938 9.375 13.5938H10.5C10.6492 13.5938 10.7923 13.653 10.8977 13.7585C11.0032 13.864 11.0625 14.0071 11.0625 14.1562V15ZM14.4375 20.0625C14.4375 20.2117 14.3782 20.3548 14.2727 20.4602C14.1673 20.5657 14.0242 20.625 13.875 20.625H12.75C12.6008 20.625 12.4577 20.5657 12.3523 20.4602C12.2468 20.3548 12.1875 20.2117 12.1875 20.0625V19.2188C12.1875 19.0696 12.2468 18.9265 12.3523 18.821C12.4577 18.7155 12.6008 18.6562 12.75 18.6562H13.875C14.0242 18.6562 14.1673 18.7155 14.2727 18.821C14.3782 18.9265 14.4375 19.0696 14.4375 19.2188V20.0625ZM14.4375 17.5312C14.4375 17.6804 14.3782 17.8235 14.2727 17.929C14.1673 18.0345 14.0242 18.0938 13.875 18.0938H12.75C12.6008 18.0938 12.4577 18.0345 12.3523 17.929C12.2468 17.8235 12.1875 17.6804 12.1875 17.5312V16.6875C12.1875 16.5383 12.2468 16.3952 12.3523 16.2898C12.4577 16.1843 12.6008 16.125 12.75 16.125H13.875C14.0242 16.125 14.1673 16.1843 14.2727 16.2898C14.3782 16.3952 14.4375 16.5383 14.4375 16.6875V17.5312ZM14.4375 15C14.4375 15.1492 14.3782 15.2923 14.2727 15.3977C14.1673 15.5032 14.0242 15.5625 13.875 15.5625H12.75C12.6008 15.5625 12.4577 15.5032 12.3523 15.3977C12.2468 15.2923 12.1875 15.1492 12.1875 15V14.1562C12.1875 14.0071 12.2468 13.864 12.3523 13.7585C12.4577 13.653 12.6008 13.5938 12.75 13.5938H13.875C14.0242 13.5938 14.1673 13.653 14.2727 13.7585C14.3782 13.864 14.4375 14.0071 14.4375 14.1562V15ZM17.25 16.6875H16.125V17.5312C16.1996 17.5312 16.2711 17.5609 16.3239 17.6136C16.3766 17.6664 16.4062 17.7379 16.4062 17.8125C16.4062 17.8871 16.3766 17.9586 16.3239 18.0114C16.2711 18.0641 16.1996 18.0938 16.125 18.0938C15.9758 18.0938 15.8327 18.0345 15.7273 17.929C15.6218 17.8235 15.5625 17.6804 15.5625 17.5312V16.6875C15.5625 16.5383 15.6218 16.3952 15.7273 16.2898C15.8327 16.1843 15.9758 16.125 16.125 16.125H17.25C17.3246 16.125 17.3961 16.1546 17.4489 16.2074C17.5016 16.2601 17.5312 16.3317 17.5312 16.4062C17.5312 16.4808 17.5016 16.5524 17.4489 16.6051C17.3961 16.6579 17.3246 16.6875 17.25 16.6875ZM17.8125 15C17.8125 15.1492 17.7532 15.2923 17.6477 15.3977C17.5423 15.5032 17.3992 15.5625 17.25 15.5625H16.125C15.9758 15.5625 15.8327 15.5032 15.7273 15.3977C15.6218 15.2923 15.5625 15.1492 15.5625 15V14.1562C15.5625 14.0071 15.6218 13.864 15.7273 13.7585C15.8327 13.653 15.9758 13.5938 16.125 13.5938H17.25C17.3992 13.5938 17.5423 13.653 17.6477 13.7585C17.7532 13.864 17.8125 14.0071 17.8125 14.1562V15ZM21.1875 15C21.1875 15.1492 21.1282 15.2923 21.0227 15.3977C20.9173 15.5032 20.7742 15.5625 20.625 15.5625H19.5C19.3508 15.5625 19.2077 15.5032 19.1023 15.3977C18.9968 15.2923 18.9375 15.1492 18.9375 15V14.1562C18.9375 14.0071 18.9968 13.864 19.1023 13.7585C19.2077 13.653 19.3508 13.5938 19.5 13.5938H20.625C20.7742 13.5938 20.9173 13.653 21.0227 13.7585C21.1282 13.864 21.1875 14.0071 21.1875 14.1562V15Z" fill="#9BC9FF"/>
</svg>
