<svg width="30" height="30" viewBox="0 0 30 30" fill="none" xmlns="http://www.w3.org/2000/svg">
<circle cx="15" cy="15" r="14.5" fill="white" stroke="#E5E9EB"/>
<g clip-path="url(#clip0_195_2658)">
<path d="M23.2502 15C23.2503 14.8606 23.2115 14.724 23.1382 14.6054C23.065 14.4869 22.9601 14.3911 22.8355 14.3288L20.4272 13.125L22.8355 11.925C22.9603 11.8628 23.0653 11.767 23.1386 11.6485C23.212 11.5299 23.2509 11.3932 23.2509 11.2538C23.2509 11.1143 23.212 10.9776 23.1386 10.8591C23.0653 10.7405 22.9603 10.6447 22.8355 10.5825L15.3355 6.83252C15.2314 6.7805 15.1166 6.75342 15.0002 6.75342C14.8838 6.75342 14.7691 6.7805 14.665 6.83252L7.16496 10.5825C7.04016 10.6447 6.93516 10.7405 6.86178 10.8591C6.78839 10.9776 6.74951 11.1143 6.74951 11.2538C6.74951 11.3932 6.78839 11.5299 6.86178 11.6485C6.93516 11.767 7.04016 11.8628 7.16496 11.925L9.57321 13.125L7.16496 14.3288C7.04016 14.391 6.93516 14.4867 6.86178 14.6053C6.78839 14.7239 6.74951 14.8606 6.74951 15C6.74951 15.1395 6.78839 15.2762 6.86178 15.3947C6.93516 15.5133 7.04016 15.6091 7.16496 15.6713L9.57321 16.875L7.16496 18.0788C7.04016 18.141 6.93516 18.2367 6.86178 18.3553C6.78839 18.4739 6.74951 18.6106 6.74951 18.75C6.74951 18.8895 6.78839 19.0262 6.86178 19.1447C6.93516 19.2633 7.04016 19.3591 7.16496 19.4213L14.665 23.1713C14.7691 23.2233 14.8838 23.2504 15.0002 23.2504C15.1166 23.2504 15.2314 23.2233 15.3355 23.1713L22.8355 19.4213C22.9603 19.3591 23.0653 19.2633 23.1386 19.1447C23.212 19.0262 23.2509 18.8895 23.2509 18.75C23.2509 18.6106 23.212 18.4739 23.1386 18.3553C23.0653 18.2367 22.9603 18.141 22.8355 18.0788L20.4272 16.875L22.8355 15.675C22.9607 15.6124 23.0659 15.516 23.1392 15.3967C23.2125 15.2775 23.251 15.14 23.2502 15ZM20.8232 18.75L15.0002 21.6615L9.17721 18.75L11.2502 17.7135L14.665 19.425C14.7691 19.477 14.8838 19.5041 15.0002 19.5041C15.1166 19.5041 15.2314 19.477 15.3355 19.425L18.7502 17.7135L20.8232 18.75ZM15.0002 17.9115L9.17721 15L11.2502 13.9635L14.665 15.675C14.7691 15.727 14.8838 15.7541 15.0002 15.7541C15.1166 15.7541 15.2314 15.727 15.3355 15.675L18.7502 13.9635L20.8232 15L15.0002 17.9115Z" fill="#9BC9FF"/>
</g>
<defs>
<clipPath id="clip0_195_2658">
<rect width="18" height="18" fill="white" transform="translate(6 6)"/>
</clipPath>
</defs>
</svg>
