<svg width="30" height="30" viewBox="0 0 30 30" fill="none" xmlns="http://www.w3.org/2000/svg">
<circle cx="15" cy="15" r="14.5" fill="white" stroke="#E5E9EB"/>
<g clip-path="url(#clip0_195_2455)">
<path d="M15.0385 16.1358C15.1714 16.1358 15.2791 16.0281 15.2791 15.8952C15.2791 15.7623 15.1714 15.6545 15.0385 15.6545C14.9056 15.6545 14.7979 15.7623 14.7979 15.8952C14.7979 16.0281 14.9056 16.1358 15.0385 16.1358Z" fill="#9BC9FF"/>
<path d="M15.0385 17.087C15.1714 17.087 15.2791 16.9793 15.2791 16.8464C15.2791 16.7135 15.1714 16.6057 15.0385 16.6057C14.9056 16.6057 14.7979 16.7135 14.7979 16.8464C14.7979 16.9793 14.9056 17.087 15.0385 17.087Z" fill="#9BC9FF"/>
<path d="M16.7273 14.4341L17.7668 13.485L18.2655 13.0326C19.1664 12.2202 19.613 11.119 19.6304 9.66172V8.43733H20.385C20.4171 8.4381 20.449 8.43245 20.4789 8.4207C20.5088 8.40895 20.536 8.39135 20.5589 8.36892C20.5819 8.3465 20.6001 8.31971 20.6126 8.29013C20.625 8.26055 20.6314 8.22878 20.6314 8.19669V7.15519C20.6314 7.09137 20.6061 7.03016 20.561 6.98503C20.5158 6.9399 20.4546 6.91455 20.3908 6.91455H9.69091C9.62708 6.91455 9.56588 6.9399 9.52075 6.98503C9.47562 7.03016 9.45026 7.09137 9.45026 7.15519V8.19669C9.45026 8.26051 9.47562 8.32172 9.52075 8.36685C9.56588 8.41198 9.62708 8.43733 9.69091 8.43733H10.4456V9.65787C10.4629 11.1113 10.9114 12.2125 11.8124 13.023L12.3899 13.5505L13.3525 14.4283C13.4526 14.5036 13.5355 14.5994 13.5956 14.7093C13.6556 14.8192 13.6916 14.9407 13.701 15.0656C13.6886 15.1944 13.6491 15.3192 13.5851 15.4317C13.5211 15.5442 13.4339 15.6418 13.3294 15.7182L11.8086 17.1081C10.9076 17.9186 10.461 19.0198 10.4417 20.4771V21.5398H9.69091C9.65881 21.5398 9.62704 21.5462 9.59746 21.5586C9.56788 21.5711 9.54109 21.5893 9.51867 21.6123C9.49625 21.6353 9.47865 21.6625 9.4669 21.6923C9.45515 21.7222 9.44949 21.7541 9.45026 21.7862V22.8277C9.45026 22.8915 9.47562 22.9527 9.52075 22.9979C9.56588 23.043 9.62708 23.0683 9.69091 23.0683H20.385C20.4176 23.0691 20.45 23.0633 20.4803 23.0512C20.5105 23.0391 20.538 23.021 20.561 22.9979C20.5841 22.9749 20.6022 22.9474 20.6143 22.9172C20.6264 22.8869 20.6322 22.8545 20.6314 22.8219V21.7862C20.6314 21.7224 20.6061 21.6612 20.561 21.616C20.5158 21.5709 20.4546 21.5456 20.3908 21.5456H19.6304V20.4733C19.613 19.0198 19.1664 17.9186 18.2655 17.1081L16.7427 15.7163C16.6391 15.6406 16.5528 15.5438 16.4894 15.4323C16.426 15.3208 16.387 15.1971 16.375 15.0694C16.3856 14.9447 16.4224 14.8236 16.4831 14.7141C16.5439 14.6046 16.6271 14.5092 16.7273 14.4341ZM15.8937 15.0713C15.9042 15.2665 15.9565 15.457 16.0472 15.6301C16.1379 15.8032 16.2648 15.9547 16.4192 16.0743L17.9363 17.4643C18.7448 18.192 19.1279 19.1507 19.1433 20.4771V21.5398H10.9268V20.479C10.9442 19.1507 11.3273 18.192 12.1358 17.4643L13.6567 16.0763C13.8122 15.9556 13.94 15.8029 14.0314 15.6285C14.1227 15.4541 14.1755 15.2621 14.1861 15.0656C14.1764 14.875 14.1256 14.6888 14.0372 14.5196C13.9488 14.3505 13.8249 14.2025 13.674 14.0857L12.7114 13.2078L12.1339 12.6803C11.3273 11.9526 10.9442 10.9939 10.9268 9.66749V8.43733H19.1491V9.65787C19.1337 10.9862 18.7506 11.9449 17.942 12.6726C17.7745 12.8228 17.609 12.9749 17.4415 13.1289L16.3961 14.0857C16.2474 14.2051 16.1257 14.3547 16.0391 14.5246C15.9525 14.6945 15.9029 14.8808 15.8937 15.0713Z" fill="#9BC9FF"/>
<path d="M18.2076 11.583C18.2335 11.5382 18.2441 11.4861 18.2378 11.4347C18.2316 11.3833 18.2088 11.3354 18.1729 11.2981C18.1377 11.2599 18.0908 11.2344 18.0396 11.2257C17.9884 11.217 17.9358 11.2255 17.8899 11.2499C16.9408 11.7331 16.5847 11.9141 15.1119 11.4425C14.168 11.1349 13.1417 11.2039 12.2473 11.635C12.2147 11.6504 12.186 11.673 12.1632 11.701C12.1405 11.7291 12.1244 11.7619 12.1161 11.797C12.1078 11.8322 12.1075 11.8687 12.1152 11.904C12.1229 11.9392 12.1385 11.9723 12.1607 12.0007C12.2531 12.1105 14.3477 14.1184 14.3669 14.1184C14.5222 14.2968 14.6166 14.52 14.6364 14.7556C14.649 14.8536 14.6988 14.9431 14.7754 15.0055C14.8521 15.0678 14.9499 15.0983 15.0484 15.0906C15.0947 15.0951 15.1414 15.0904 15.1859 15.0767C15.2304 15.0631 15.2717 15.0407 15.3075 15.011C15.3433 14.9813 15.3729 14.9448 15.3945 14.9036C15.4161 14.8624 15.4293 14.8173 15.4334 14.771C15.4705 14.4635 15.6216 14.1811 15.857 13.9798C15.8897 13.9509 16.0245 13.8219 16.2073 13.6467C16.6578 13.2155 17.4086 12.4916 17.6146 12.3107C17.85 12.1015 18.0502 11.8558 18.2076 11.583ZM11.7237 20.7697C11.7229 20.8021 11.7287 20.8344 11.7407 20.8645C11.7527 20.8946 11.7706 20.922 11.7934 20.945C11.8163 20.968 11.8435 20.9862 11.8736 20.9984C11.9036 21.0106 11.9358 21.0167 11.9682 21.0161H18.1113C18.1751 21.0161 18.2363 20.9908 18.2815 20.9457C18.3266 20.9005 18.3519 20.8393 18.3519 20.7755C18.3311 19.9104 17.9728 19.0877 17.3535 18.4832C16.7343 17.8787 15.9032 17.5403 15.0378 17.5403C14.1724 17.5403 13.3414 17.8787 12.7221 18.4832C12.1029 19.0877 11.7446 19.9104 11.7237 20.7755V20.7697Z" fill="#9BC9FF"/>
</g>
<defs>
<clipPath id="clip0_195_2455">
<rect width="18" height="18" fill="white" transform="translate(6 6)"/>
</clipPath>
</defs>
</svg>
