<svg width="30" height="31" viewBox="0 0 30 31" fill="none" xmlns="http://www.w3.org/2000/svg">
<circle cx="15" cy="15.5" r="14.5" fill="white" stroke="#E5E9EB"/>
<path d="M21.0592 14.4023C21.0592 15.2413 20.178 15.8991 19.8754 16.6287C19.5618 17.3849 19.7081 18.4703 19.138 19.0401C18.5679 19.6099 17.4828 19.4637 16.7265 19.7773C15.997 20.0799 15.3391 20.961 14.5002 20.961C13.6612 20.961 13.0033 20.0799 12.2738 19.7773C11.5175 19.4637 10.4322 19.6099 9.86234 19.0398C9.29253 18.4697 9.43878 17.3847 9.12519 16.6284C8.82256 15.8988 7.94141 15.241 7.94141 14.402C7.94141 13.563 8.82256 12.9052 9.12519 12.1756C9.43878 11.4194 9.29253 10.334 9.86263 9.7642C10.4327 9.19439 11.5178 9.34064 12.2741 9.02704C13.0036 8.72442 13.6615 7.84326 14.5004 7.84326C15.3394 7.84326 15.9972 8.72442 16.7268 9.02704C17.4831 9.34064 18.5684 9.19439 19.1383 9.76448C19.7081 10.3346 19.5618 11.4196 19.8754 12.1759C20.178 12.9055 21.0592 13.5633 21.0592 14.4023Z" fill="#E4F0FE"/>
<path d="M14.5 18.6211C16.83 18.6211 18.7188 16.7323 18.7188 14.4023C18.7188 12.0724 16.83 10.1836 14.5 10.1836C12.17 10.1836 10.2812 12.0724 10.2812 14.4023C10.2812 16.7323 12.17 18.6211 14.5 18.6211Z" fill="#CDE4FF"/>
<path d="M12.2736 19.7774C11.5173 19.4638 10.432 19.61 9.86219 19.0399C9.49319 18.6709 9.42428 18.0859 9.33653 17.5142L6.34375 21.081L9.26087 21.3259L10.0084 24.1562L13.1877 20.3672C12.8831 20.1408 12.5847 19.9065 12.2736 19.7774ZM19.6635 17.5144C19.5757 18.0862 19.5068 18.6712 19.1378 19.0402C18.568 19.61 17.4827 19.4638 16.7264 19.7774C16.415 19.9065 16.1169 20.1408 15.8123 20.3672L18.9916 24.1562L19.7391 21.3259L22.6562 21.081L19.6635 17.5144Z" fill="#9BC9FF"/>
</svg>
