<svg width="30" height="30" viewBox="0 0 30 30" fill="none" xmlns="http://www.w3.org/2000/svg">
<circle cx="15" cy="15" r="14.5" fill="white" stroke="#E5E9EB"/>
<g clip-path="url(#clip0_195_1967)">
<path d="M23.2497 15C23.2498 14.8606 23.211 14.724 23.1378 14.6054C23.0645 14.4869 22.9597 14.3911 22.835 14.3288L20.4267 13.125L22.835 11.925C22.9598 11.8628 23.0648 11.767 23.1382 11.6485C23.2115 11.5299 23.2504 11.3932 23.2504 11.2538C23.2504 11.1143 23.2115 10.9776 23.1382 10.8591C23.0648 10.7405 22.9598 10.6447 22.835 10.5825L15.335 6.83252C15.2309 6.7805 15.1161 6.75342 14.9997 6.75342C14.8834 6.75342 14.7686 6.7805 14.6645 6.83252L7.16447 10.5825C7.03967 10.6447 6.93468 10.7405 6.86129 10.8591C6.7879 10.9776 6.74902 11.1143 6.74902 11.2538C6.74902 11.3932 6.7879 11.5299 6.86129 11.6485C6.93468 11.767 7.03967 11.8628 7.16447 11.925L9.57272 13.125L7.16447 14.3288C7.03967 14.391 6.93468 14.4867 6.86129 14.6053C6.7879 14.7239 6.74902 14.8606 6.74902 15C6.74902 15.1395 6.7879 15.2762 6.86129 15.3947C6.93468 15.5133 7.03967 15.6091 7.16447 15.6713L9.57272 16.875L7.16447 18.0788C7.03967 18.141 6.93468 18.2367 6.86129 18.3553C6.7879 18.4739 6.74902 18.6106 6.74902 18.75C6.74902 18.8895 6.7879 19.0262 6.86129 19.1447C6.93468 19.2633 7.03967 19.3591 7.16447 19.4213L14.6645 23.1713C14.7686 23.2233 14.8834 23.2504 14.9997 23.2504C15.1161 23.2504 15.2309 23.2233 15.335 23.1713L22.835 19.4213C22.9598 19.3591 23.0648 19.2633 23.1382 19.1447C23.2115 19.0262 23.2504 18.8895 23.2504 18.75C23.2504 18.6106 23.2115 18.4739 23.1382 18.3553C23.0648 18.2367 22.9598 18.141 22.835 18.0788L20.4267 16.875L22.835 15.675C22.9602 15.6124 23.0654 15.516 23.1387 15.3967C23.212 15.2775 23.2505 15.14 23.2497 15ZM20.8227 18.75L14.9997 21.6615L9.17672 18.75L11.2497 17.7135L14.6645 19.425C14.7686 19.477 14.8834 19.5041 14.9997 19.5041C15.1161 19.5041 15.2309 19.477 15.335 19.425L18.7497 17.7135L20.8227 18.75ZM14.9997 17.9115L9.17672 15L11.2497 13.9635L14.6645 15.675C14.7686 15.727 14.8834 15.7541 14.9997 15.7541C15.1161 15.7541 15.2309 15.727 15.335 15.675L18.7497 13.9635L20.8227 15L14.9997 17.9115Z" fill="#9BC9FF"/>
</g>
<defs>
<clipPath id="clip0_195_1967">
<rect width="18" height="18" fill="white" transform="translate(6 6)"/>
</clipPath>
</defs>
</svg>
