<svg width="2" height="20" viewBox="0 0 2 20" fill="none" xmlns="http://www.w3.org/2000/svg">
<path d="M0.912915 2.0578C0.906522 2.07042 0.90048 2.08439 0.894739 2.0995C0.914133 1.87332 0.934395 1.67313 0.955388 1.50129C0.984214 1.26535 1.01402 1.0863 1.04398 0.967742C1.0442 0.96686 1.04442 0.965984 1.04464 0.965112C1.04487 0.96599 1.04509 0.966873 1.04532 0.96776C1.07527 1.08633 1.10508 1.26539 1.13391 1.50136C1.1549 1.67318 1.17516 1.87336 1.19455 2.09951C1.18881 2.08439 1.18276 2.07042 1.17637 2.0578C1.16695 2.03922 1.15412 2.01819 1.13622 2.00056C1.11805 1.98266 1.08713 1.96128 1.04464 1.96128C1.00215 1.96128 0.971233 1.98266 0.953062 2.00056C0.93516 2.01819 0.922335 2.03922 0.912915 2.0578ZM1.17637 18.201C1.18276 18.1884 1.18881 18.1744 1.19455 18.1593C1.17515 18.3855 1.15489 18.5857 1.1339 18.7575C1.10507 18.9935 1.07526 19.1725 1.04531 19.2911C1.04509 19.292 1.04486 19.2928 1.04464 19.2937C1.04442 19.2928 1.04419 19.2919 1.04397 19.2911C1.01402 19.1725 0.984204 18.9934 0.955378 18.7575C0.934388 18.5856 0.914129 18.3855 0.894738 18.1593C0.900479 18.1744 0.906522 18.1884 0.912915 18.201C0.922335 18.2196 0.93516 18.2406 0.953062 18.2583C0.971233 18.2762 1.00215 18.2975 1.04464 18.2975C1.08713 18.2975 1.11805 18.2762 1.13622 18.2583C1.15412 18.2406 1.16695 18.2196 1.17637 18.201Z" fill="black" stroke="#E5E9EB" stroke-width="0.2"/>
<path d="M1.04021 6.05821C1.05182 6.24918 1.06076 6.47744 1.06658 6.73315L1.01627 6.73084C1.0203 6.50374 1.02823 6.26655 1.04021 6.05821Z" fill="black" stroke="#E5E9EB" stroke-width="0.2"/>
</svg>
