<svg width="30" height="30" viewBox="0 0 30 30" fill="none" xmlns="http://www.w3.org/2000/svg">
<circle cx="15" cy="15" r="14.5" fill="white" stroke="#E5E9EB"/>
<path d="M17.8125 7.125H16.5907C16.359 6.47025 15.7335 6 15 6C14.2665 6 13.641 6.47025 13.4081 7.125H12.1875C11.877 7.125 11.625 7.377 11.625 7.6875V9.9375C11.625 10.248 11.877 10.5 12.1875 10.5H17.8125C18.123 10.5 18.375 10.248 18.375 9.9375V7.6875C18.375 7.377 18.123 7.125 17.8125 7.125Z" fill="#9BC9FF"/>
<path d="M20.625 8.25H19.5V9.9375C19.5 10.8679 18.7429 11.625 17.8125 11.625H12.1875C11.2571 11.625 10.5 10.8679 10.5 9.9375V8.25H9.375C8.75512 8.25 8.25 8.75512 8.25 9.375V22.875C8.25 23.5061 8.74388 24 9.375 24H20.625C21.2561 24 21.75 23.5061 21.75 22.875V9.375C21.75 8.74388 21.2561 8.25 20.625 8.25ZM14.8358 18.2108L12.5858 20.4608C12.4799 20.5659 12.3367 20.625 12.1875 20.625C12.0383 20.625 11.8951 20.5659 11.7892 20.4608L10.6642 19.3358C10.4449 19.1164 10.4449 18.7598 10.6642 18.5404C10.8836 18.321 11.2403 18.321 11.4596 18.5404L12.1875 19.2671L14.0392 17.4154C14.2586 17.196 14.6153 17.196 14.8346 17.4154C15.054 17.6348 15.0551 17.9902 14.8358 18.2108ZM14.8358 13.7108L12.5858 15.9608C12.4799 16.0659 12.3367 16.125 12.1875 16.125C12.0383 16.125 11.8951 16.0659 11.7892 15.9608L10.6642 14.8358C10.4449 14.6164 10.4449 14.2597 10.6642 14.0404C10.8836 13.821 11.2403 13.821 11.4596 14.0404L12.1875 14.7671L14.0392 12.9154C14.2586 12.696 14.6153 12.696 14.8346 12.9154C15.054 13.1347 15.0551 13.4903 14.8358 13.7108ZM18.9375 19.5H16.6875C16.377 19.5 16.125 19.248 16.125 18.9375C16.125 18.627 16.377 18.375 16.6875 18.375H18.9375C19.248 18.375 19.5 18.627 19.5 18.9375C19.5 19.248 19.248 19.5 18.9375 19.5ZM18.9375 15H16.6875C16.377 15 16.125 14.748 16.125 14.4375C16.125 14.127 16.377 13.875 16.6875 13.875H18.9375C19.248 13.875 19.5 14.127 19.5 14.4375C19.5 14.748 19.248 15 18.9375 15Z" fill="#9BC9FF"/>
</svg>
