<svg width="30" height="30" viewBox="0 0 30 30" fill="none" xmlns="http://www.w3.org/2000/svg">
<circle cx="15" cy="15" r="14.5" fill="white" stroke="#E5E9EB"/>
<g clip-path="url(#clip0_195_3003)">
<path d="M15.3614 6L16.1576 6.45967L15.9803 6.04676C15.7746 6.02402 15.5682 6.00843 15.3614 6ZM14.6379 6C14.4321 6.00865 14.2253 6.02366 14.0191 6.04676L13.8419 6.45956L14.6379 6ZM21.815 20.1343L21.45 19.2202C21.414 19.2279 21.3774 19.2318 21.3406 19.2318C21.1582 19.2318 20.9918 19.1401 20.8954 18.9865L20.7408 18.7403L19.6786 19.4074C19.7136 19.6001 19.7146 19.9391 19.534 20.34C19.7472 20.5922 19.7941 20.9389 19.6514 21.2105L20.4285 21.5209C20.9412 21.112 21.4062 20.6469 21.815 20.1343ZM20.4285 7.88968L19.3682 8.31318L20.6763 9.06833C20.6806 9.07086 20.6847 9.07378 20.6888 9.07673C20.6898 9.07747 20.6908 9.07804 20.6918 9.07874C20.6984 9.0838 20.7043 9.08953 20.71 9.09558C20.7114 9.09716 20.7128 9.09878 20.7142 9.10043C20.7254 9.11368 20.7342 9.1288 20.74 9.14518C20.7408 9.14722 20.7415 9.14923 20.7422 9.1513C20.7446 9.15914 20.7466 9.16719 20.7476 9.17545C20.7478 9.17665 20.7477 9.17784 20.7479 9.17904C20.7484 9.18403 20.7489 9.18906 20.7489 9.19416V14.224L22.0896 16.3592L23.658 15.6858C23.6946 15.3603 23.713 15.0331 23.7132 14.7056C23.7132 14.3813 23.6947 14.0518 23.658 13.7248L21.9874 13.0075C21.967 12.9988 21.9489 12.9855 21.9345 12.9687C21.9201 12.9519 21.9097 12.932 21.9041 12.9106C21.7383 12.2727 21.4845 11.6611 21.15 11.0932C21.1388 11.0741 21.1321 11.0527 21.1304 11.0306C21.1287 11.0085 21.1321 10.9863 21.1403 10.9657L21.815 9.27632C21.4062 8.76366 20.9411 8.29854 20.4285 7.88968ZM7.90968 16.3591L9.25051 14.224V9.19412C9.25051 9.18902 9.251 9.184 9.25149 9.179C9.25163 9.17781 9.2516 9.17665 9.25174 9.17542C9.25318 9.16509 9.25571 9.15494 9.2593 9.14515C9.26589 9.12675 9.27613 9.10987 9.28939 9.09551C9.29498 9.08946 9.30096 9.08377 9.3076 9.07867C9.30852 9.07793 9.30961 9.0774 9.31055 9.07666C9.3146 9.07375 9.31871 9.07079 9.32311 9.06826L10.6311 8.31314L9.57057 7.88965C9.05794 8.29848 8.59284 8.76358 8.18401 9.27621L8.85862 10.9656C8.86684 10.9862 8.87024 11.0084 8.86856 11.0305C8.86689 11.0525 8.86018 11.074 8.84895 11.0931C8.51472 11.661 8.26106 12.2727 8.09524 12.9105C8.08967 12.9319 8.07928 12.9518 8.06485 12.9686C8.05042 12.9854 8.03234 12.9987 8.01199 13.0074L6.34126 13.7248C6.30463 14.0504 6.28622 14.3779 6.28613 14.7055C6.28613 15.0308 6.30466 15.3601 6.34126 15.6857L7.90968 16.3591ZM9.57057 21.5208L10.3521 21.2087C10.3448 21.1978 10.3377 21.1867 10.331 21.1753C10.1661 20.8924 10.2202 20.5369 10.4389 20.285C10.2749 19.8896 10.2927 19.5695 10.3203 19.407L9.25856 18.7403L9.10394 18.9866C9.00754 19.1401 8.84111 19.2318 8.65879 19.2318C8.62163 19.2318 8.58489 19.2279 8.549 19.2202L8.18401 20.1342C8.59281 20.6469 9.05792 21.112 9.57057 21.5208ZM13.0868 11.1576L14.9996 12.2621L16.9125 11.1576L14.9996 10.0407L13.0868 11.1576ZM14.9997 7.92161C15.4097 7.47491 15.8084 7.10514 16.191 6.81432L14.9996 6.12653L13.8083 6.81429C14.1909 7.10514 14.5897 7.47487 14.9997 7.92161Z" fill="#9BC9FF"/>
<path d="M19.319 8.68674C19.3373 8.92317 19.2498 9.15372 19.0658 9.35408C18.8712 9.56603 18.5797 9.73074 18.2089 9.84306L18.6963 10.1277L20.3132 9.19408L19.319 8.62008V8.68674ZM11.3032 10.1277L11.7905 9.8431C11.4199 9.73077 11.1283 9.56607 10.9337 9.35411C10.7504 9.15449 10.6631 8.92489 10.6805 8.68952V8.62015L9.68628 9.19415L11.3032 10.1277ZM14.8545 16.4111V12.5136L12.9429 11.4098V15.9561C13.0581 15.9352 13.175 15.9248 13.2922 15.9251C13.7735 15.9251 14.2984 16.0886 14.8545 16.4111ZM9.83239 13.7612C9.93086 13.7612 10.0269 13.7888 10.1103 13.8411L11.1583 14.4992V10.3794L9.54102 9.44566V13.8486C9.62738 13.7914 9.72876 13.7609 9.83239 13.7612ZM17.0566 15.9561V11.4098L15.145 12.5136V16.4112C15.7011 16.0886 16.226 15.9251 16.7074 15.9251C16.8357 15.9251 16.9518 15.9369 17.0566 15.9561ZM20.1671 13.7612C20.2732 13.7612 20.3738 13.7924 20.4585 13.8486V9.44566L18.8411 10.3795V14.4993L19.8892 13.8412C19.9725 13.7889 20.0688 13.7611 20.1671 13.7612ZM10.9709 6.96387V8.11591C11.0465 8.04567 11.1354 7.98305 11.2362 7.93028C11.3106 7.89149 11.3882 7.85918 11.4682 7.83371C11.4695 7.83318 11.4709 7.83283 11.4723 7.83234L11.477 7.83075C11.6233 7.78488 11.7799 7.76157 11.9421 7.76157C12.4992 7.76157 13.1322 8.03016 13.8237 8.55993C14.1563 8.81436 14.502 9.1301 14.8545 9.50089V8.19353C14.1533 7.41672 13.4913 6.87078 12.8865 6.5716C12.2919 6.27741 11.782 6.2374 11.3709 6.45249C11.1363 6.57533 10.9909 6.76148 10.9709 6.96387Z" fill="#9BC9FF"/>
<path d="M13.6787 8.81521C12.9954 8.74244 11.707 8.51874 11.4336 8.15751C11.4124 8.16692 11.3915 8.17696 11.3709 8.1876C11.1343 8.31153 10.9883 8.50021 10.9705 8.7051C10.9573 8.86035 11.0185 9.01691 11.1478 9.15767C11.3431 9.37037 11.8631 9.7272 13.1518 9.7272H14.6691C14.3296 9.36783 13.9976 9.06236 13.6787 8.81521ZM18.6287 6.45247C18.2177 6.23738 17.7078 6.27746 17.1132 6.57158C16.5084 6.87079 15.8464 7.41621 15.1452 8.19305V9.50076C15.4977 9.12993 15.8434 8.8143 16.1761 8.5598C17.0637 7.87971 17.8753 7.6276 18.523 7.8308C18.5246 7.8313 18.5262 7.83193 18.5279 7.83242C18.5293 7.83295 18.5309 7.83333 18.5324 7.8339C18.6119 7.85929 18.6892 7.89147 18.7633 7.93008C18.8641 7.98289 18.9531 8.04547 19.0288 8.11571V6.96385C19.0087 6.76146 18.8633 6.5753 18.6287 6.45247Z" fill="#9BC9FF"/>
<path d="M15.3305 9.72716H16.8478C18.1365 9.72716 18.6565 9.37033 18.8518 9.15763C18.9806 9.01732 19.0419 8.86137 19.0292 8.70644C19.0291 8.70555 19.029 8.70466 19.029 8.70376C19.0108 8.49947 18.8649 8.31128 18.6285 8.18749C18.608 8.17689 18.5871 8.16688 18.566 8.15747C18.2926 8.5187 17.0042 8.7424 16.3209 8.81517C16.002 9.06236 15.6699 9.36783 15.3305 9.72716ZM19.3685 21.1191C19.501 20.9297 19.4549 20.6526 19.2613 20.4743L19.2609 20.474C19.2417 20.4563 19.2214 20.4399 19.2001 20.4249L16.4717 18.6799C16.4469 18.6641 16.4276 18.6411 16.4162 18.614C16.1942 18.5261 16.0141 18.3833 15.8803 18.2164L14.7391 19.028C14.5451 19.166 14.3339 19.2364 14.1271 19.2364C13.998 19.2365 13.8705 19.2086 13.7533 19.1548C13.4477 19.0151 13.2381 18.7201 13.2062 18.385C13.1716 18.0203 13.3564 17.6655 13.7134 17.4116L14.7407 16.6809C14.2175 16.372 13.7307 16.2154 13.2921 16.2154C12.732 16.2154 12.4565 16.4714 12.445 16.4823C12.3969 16.5281 12.3231 16.5362 12.2669 16.5009L11.1178 15.7794L9.41309 18.4942L10.5621 19.2157C10.5897 19.2331 10.6107 19.2592 10.6217 19.29C10.6326 19.3207 10.6329 19.3543 10.6225 19.3852C10.6156 19.4066 10.5315 19.6869 10.6757 20.0925L11.6702 19.5128C11.8054 19.4339 11.9578 19.3923 12.1109 19.3923C12.391 19.3923 12.637 19.5275 12.7691 19.7541C12.8726 19.9317 12.8936 20.1429 12.8281 20.3486C12.8091 20.4072 12.7836 20.4635 12.7522 20.5165C12.9788 20.5464 13.1839 20.6692 13.3016 20.8712C13.3924 21.0269 13.4197 21.2083 13.381 21.3892C13.7419 21.2621 14.1412 21.3848 14.3259 21.7017C14.4153 21.855 14.4428 22.0332 14.4067 22.2113C14.7782 22.0587 15.2018 22.1774 15.3939 22.5068C15.4974 22.6844 15.5184 22.8955 15.4529 23.1012C15.4137 23.2241 15.3462 23.3356 15.2567 23.4289L16.0123 23.8693C16.0158 23.8713 16.0192 23.8735 16.0224 23.8758C16.1227 23.946 16.2378 23.983 16.3555 23.983C16.514 23.983 16.6521 23.9155 16.7346 23.7977C16.8049 23.6972 16.8273 23.5706 16.7974 23.441C16.7665 23.3063 16.6839 23.1861 16.5648 23.1025L16.564 23.1019C16.5632 23.1014 16.5627 23.1008 16.562 23.1003C16.5612 23.0997 16.5601 23.0992 16.5593 23.0986L15.1774 22.0472C15.1467 22.0239 15.1266 21.9894 15.1214 21.9512C15.1162 21.9131 15.1264 21.8744 15.1497 21.8437C15.173 21.8131 15.2076 21.7929 15.2457 21.7877C15.2839 21.7826 15.3226 21.7927 15.3532 21.8161L16.7328 22.8656L17.1054 23.1264C17.2056 23.1965 17.3207 23.2335 17.4384 23.2335C17.5969 23.2335 17.7351 23.166 17.8176 23.0482C17.9667 22.8351 17.8905 22.5234 17.6478 22.353L17.6472 22.3526L16.0408 21.2421C16.0248 21.2314 16.0111 21.2176 16.0005 21.2015C15.9899 21.1855 15.9826 21.1675 15.979 21.1486C15.9754 21.1297 15.9756 21.1102 15.9796 21.0914C15.9836 21.0726 15.9913 21.0547 16.0022 21.0389C16.0131 21.0231 16.0271 21.0096 16.0433 20.9992C16.0595 20.9888 16.0776 20.9818 16.0966 20.9784C16.1155 20.9751 16.135 20.9756 16.1537 20.9798C16.1725 20.9841 16.1902 20.992 16.2059 21.0032L17.8129 22.114L17.8132 22.1143L17.8136 22.1145L18.1144 22.3251C18.2147 22.3952 18.3299 22.4323 18.4475 22.4323C18.606 22.4323 18.7442 22.3648 18.8266 22.247C18.9758 22.0336 18.8993 21.7215 18.6559 21.5512L18.4928 21.4371L16.6868 20.2926C16.6551 20.2716 16.6328 20.239 16.6248 20.2018C16.6169 20.1646 16.6238 20.1258 16.6442 20.0936C16.6645 20.0615 16.6967 20.0386 16.7338 20.0299C16.7708 20.0213 16.8098 20.0275 16.8423 20.0472L18.6508 21.1934C18.6518 21.194 18.6526 21.1948 18.6535 21.1955C18.6544 21.1961 18.6555 21.1964 18.6564 21.1971H18.6564C18.7566 21.2672 18.8717 21.3043 18.9893 21.3043C19.1478 21.3044 19.286 21.2368 19.3685 21.1191Z" fill="#9BC9FF"/>
<path d="M19.4374 19.2159L20.5864 18.4945L18.8816 15.7796L17.7326 16.5011C17.7049 16.5185 17.6723 16.526 17.6398 16.5225C17.6074 16.519 17.577 16.5047 17.5537 16.4819C17.543 16.4717 17.2674 16.2156 16.7074 16.2156C16.2363 16.2156 15.7097 16.3961 15.1422 16.752L13.8817 17.6485C13.6077 17.8435 13.4705 18.0953 13.4954 18.3577C13.5171 18.5863 13.6658 18.7956 13.8741 18.8908C14.0928 18.9909 14.3402 18.9556 14.5707 18.7916L15.8301 17.8958C15.8462 17.8843 15.8645 17.8763 15.8839 17.8721C15.9032 17.868 15.9232 17.8678 15.9426 17.8717C15.962 17.8755 15.9804 17.8833 15.9966 17.8945C16.0129 17.9057 16.0267 17.9202 16.0372 17.9369C16.3256 18.396 16.9732 18.6733 17.9264 18.0748C17.9426 18.0646 17.9605 18.0578 17.9794 18.0546C17.9982 18.0514 18.0174 18.0519 18.036 18.0562C18.0546 18.0604 18.0722 18.0683 18.0877 18.0793C18.1033 18.0904 18.1165 18.1044 18.1266 18.1205C18.1368 18.1367 18.1436 18.1547 18.1468 18.1735C18.15 18.1923 18.1494 18.2115 18.1452 18.2301C18.1409 18.2487 18.1331 18.2663 18.122 18.2818C18.111 18.2974 18.097 18.3106 18.0808 18.3207C17.6959 18.5624 17.3489 18.6769 17.0445 18.7017L19.301 20.1448C19.4744 19.7056 19.3819 19.401 19.3767 19.3847C19.3665 19.3538 19.3669 19.3204 19.3779 19.2898C19.3889 19.2592 19.4098 19.2332 19.4374 19.2159ZM8.5354 18.9059C8.57237 18.9292 8.61516 18.9415 8.65883 18.9414C8.7406 18.9414 8.81506 18.9006 8.85799 18.8323L11.1809 15.133C11.1973 15.107 11.2083 15.078 11.2134 15.0477C11.2185 15.0174 11.2175 14.9864 11.2105 14.9565C11.2038 14.9265 11.1913 14.8981 11.1735 14.873C11.1558 14.848 11.1333 14.8266 11.1073 14.8103L9.95578 14.0873C9.91879 14.064 9.87599 14.0517 9.83231 14.0518C9.75057 14.0518 9.67608 14.0926 9.63308 14.161L7.31013 17.8602C7.27721 17.9128 7.26648 17.9763 7.28031 18.0368C7.29413 18.0973 7.33138 18.1498 7.38389 18.1829L8.5354 18.9059ZM9.46981 14.963C9.58502 14.7796 9.78327 14.6701 10.0001 14.6701C10.1176 14.6701 10.2325 14.7032 10.3323 14.766C10.6245 14.9494 10.7128 15.3364 10.5294 15.6285C10.4143 15.8119 10.216 15.9214 9.9992 15.9214C9.8817 15.9214 9.76678 15.8883 9.6669 15.8256C9.37475 15.6421 9.28637 15.2552 9.46981 14.963Z" fill="#9BC9FF"/>
<path d="M9.82089 15.5796C9.87414 15.6131 9.93578 15.631 9.99871 15.631C10.0555 15.6312 10.1115 15.6169 10.1612 15.5894C10.211 15.562 10.2529 15.5222 10.2829 15.474C10.3812 15.3175 10.3339 15.1102 10.1774 15.0119C10.1241 14.9784 10.0625 14.9606 9.99959 14.9605C9.94275 14.9603 9.88681 14.9747 9.83705 15.0021C9.7873 15.0296 9.74538 15.0693 9.71528 15.1176C9.61702 15.274 9.66441 15.4813 9.82089 15.5796ZM14.9155 23.3313C15.0412 23.2579 15.1336 23.145 15.1755 23.0133C15.2158 22.8869 15.204 22.7591 15.1424 22.6533C15.0114 22.4287 14.6966 22.3674 14.4406 22.5166L13.9941 22.7769C13.994 22.7769 13.9939 22.777 13.9938 22.7771L13.4333 23.1038L13.4331 23.104C13.3073 23.1773 13.215 23.2902 13.173 23.4218C13.1328 23.5482 13.1446 23.6761 13.2062 23.7819C13.3371 24.0065 13.6519 24.0677 13.9079 23.9185L14.9155 23.3313ZM12.8401 23.1135L13.8476 22.5262C13.9733 22.4529 14.0657 22.34 14.1076 22.2083C14.1479 22.0819 14.1361 21.954 14.0744 21.8482C13.9435 21.6236 13.6287 21.5623 13.3727 21.7116L12.9696 21.9466L12.3653 22.2989C12.2395 22.3722 12.1471 22.4851 12.1052 22.6168C12.0649 22.7432 12.0767 22.871 12.1384 22.9768C12.2693 23.2013 12.5841 23.2627 12.8401 23.1135ZM11.8158 22.2829L12.2189 22.0479L12.219 22.0479L12.8232 21.6957L12.8233 21.6957L12.8235 21.6956C12.9492 21.6222 13.0414 21.5094 13.0834 21.3777C13.1237 21.2513 13.1119 21.1235 13.0502 21.0177C12.9193 20.7931 12.6046 20.7319 12.3485 20.881L11.4295 21.4167C11.4086 21.4289 11.3872 21.4399 11.3655 21.4503C11.358 21.4571 11.3498 21.4632 11.341 21.4684C11.2152 21.5417 11.1229 21.6545 11.0809 21.7862C11.0406 21.9126 11.0524 22.0405 11.1141 22.1463C11.245 22.3709 11.5598 22.4321 11.8158 22.2829ZM11.2832 21.1658L12.2021 20.6302L12.2022 20.6301C12.2023 20.6301 12.2024 20.63 12.2025 20.63L12.2908 20.5785C12.4165 20.5052 12.5089 20.3923 12.5508 20.2606C12.5911 20.1342 12.5793 20.0064 12.5177 19.9006C12.4382 19.7643 12.286 19.683 12.1104 19.683C12.0086 19.683 11.9068 19.711 11.8159 19.7639L10.8084 20.3512C10.5524 20.5005 10.4506 20.8046 10.5815 21.0291C10.661 21.1654 10.8132 21.2468 10.9888 21.2468C11.0905 21.2468 11.1923 21.2188 11.2832 21.1658ZM22.6888 17.8602L20.3658 14.161C20.3229 14.0926 20.2484 14.0518 20.1666 14.0518C20.1229 14.0517 20.0801 14.064 20.0431 14.0873L18.8917 14.8103C18.8657 14.8266 18.8432 14.848 18.8254 14.8731C18.8077 14.8981 18.7951 14.9265 18.7884 14.9565C18.7815 14.9864 18.7805 15.0174 18.7855 15.0477C18.7906 15.078 18.8016 15.1069 18.818 15.133L21.141 18.8322C21.1839 18.9006 21.2583 18.9414 21.3401 18.9414C21.3838 18.9415 21.4266 18.9292 21.4636 18.9059L22.6151 18.1829C22.6676 18.1498 22.7048 18.0973 22.7186 18.0368C22.7325 17.9763 22.7217 17.9128 22.6888 17.8602ZM19.6666 14.766C19.7661 14.7033 19.8813 14.6701 19.9989 14.6701C20.2157 14.6701 20.4139 14.7796 20.5291 14.963C20.7126 15.2552 20.6242 15.6421 20.3321 15.8256C20.2326 15.8882 20.1174 15.9214 19.9998 15.9214C19.7829 15.9214 19.5847 15.8119 19.4696 15.6284C19.2861 15.3363 19.3745 14.9494 19.6666 14.766Z" fill="#9BC9FF"/>
<path d="M19.7163 15.4739C19.7464 15.5221 19.7883 15.5618 19.838 15.5893C19.8878 15.6168 19.9437 15.6311 20.0005 15.6309C20.0635 15.6308 20.1251 15.613 20.1784 15.5795C20.3348 15.4813 20.3822 15.2739 20.284 15.1175C20.2539 15.0693 20.2119 15.0295 20.1622 15.0021C20.1124 14.9746 20.0565 14.9603 19.9997 14.9605C19.9367 14.9605 19.8751 14.9783 19.8218 15.0118C19.6654 15.1101 19.618 15.3174 19.7163 15.4739Z" fill="#9BC9FF"/>
</g>
<defs>
<clipPath id="clip0_195_3003">
<rect width="18" height="18" fill="white" transform="translate(6 6)"/>
</clipPath>
</defs>
</svg>
