<svg width="30" height="30" viewBox="0 0 30 30" fill="none" xmlns="http://www.w3.org/2000/svg">
<circle cx="15" cy="15" r="14.5" fill="white" stroke="#E5E9EB"/>
<g clip-path="url(#clip0_195_2996)">
<path fill-rule="evenodd" clip-rule="evenodd" d="M9.76209 23.0859V20.2383C9.76209 20.1328 9.8324 20.0273 9.97303 20.0273H12.1176C12.223 20.0273 12.3285 20.1328 12.3285 20.2383V23.0859H9.76209ZM20.2387 23.0859V13.7695H19.2543C19.184 13.7695 19.1137 13.7344 19.0785 13.6641C19.0433 13.5938 19.0433 13.4883 19.0785 13.4531L21.2933 10.0781C21.3285 10.0078 21.3988 9.97266 21.4691 9.97266C21.5394 9.97266 21.6097 10.0078 21.6449 10.0781L23.9652 13.418C24.0004 13.4531 24.0004 13.4883 24.0004 13.5586C24.0004 13.6641 23.8949 13.7695 23.7894 13.7695H22.8051V23.0859H20.2387ZM16.7582 23.0859V16.793C16.7582 16.6875 16.8285 16.582 16.9691 16.582H19.1137C19.2191 16.582 19.3246 16.6875 19.3246 16.793V23.0859H16.7582ZM13.2426 23.0859V18.8672C13.2426 18.7266 13.348 18.6562 13.4535 18.6562H15.598C15.7387 18.6562 15.809 18.7266 15.809 18.8672V23.0859H13.2426ZM23.4379 23.9297H8.7074C8.60194 23.9297 8.49647 23.8242 8.49647 23.7188C8.49647 23.5781 8.60194 23.5078 8.7074 23.5078H23.4379C23.5433 23.5078 23.6488 23.5781 23.6488 23.7188C23.6488 23.8242 23.5433 23.9297 23.4379 23.9297ZM8.49647 19.1484C8.03944 19.1484 7.68787 18.8672 7.61756 18.4102C7.5824 18.0586 7.75819 17.5664 8.35584 17.4258C8.74256 17.2852 9.12928 17.1094 9.44569 16.9688C9.55115 16.9336 9.65662 16.8984 9.72694 16.8281C10.5355 16.4766 11.309 16.0195 12.0121 15.4922C14.1918 13.9102 15.7738 11.9062 16.723 9.55078C16.8988 9.12891 17.0394 8.67188 17.1449 8.25L17.1801 8.14453L16.0199 7.65234C15.9496 7.61719 15.8793 7.51172 15.8793 7.44141C15.8793 7.37109 15.9496 7.26562 16.0199 7.26562L18.8324 6.10547C18.9379 6.07031 19.0433 6.10547 19.0785 6.21094L20.2387 9.02344C20.2738 9.09375 20.2387 9.19922 20.2035 9.23438C20.1332 9.30469 20.0277 9.33984 19.9574 9.30469L18.8324 8.8125C18.3402 10.4648 17.6019 11.9766 16.6527 13.3477C15.6683 14.6836 14.4379 15.9141 13.0316 16.9336C12.1176 17.6016 11.1332 18.1641 10.1488 18.5859C9.79725 18.7617 9.30506 18.9727 8.88319 19.1133C8.74256 19.1484 8.63709 19.1484 8.49647 19.1484Z" fill="#9BC9FF"/>
<path fill-rule="evenodd" clip-rule="evenodd" d="M9.86719 14.1914C7.72266 14.1914 6 12.4688 6 10.3242C6 8.21484 7.72266 6.45703 9.86719 6.45703C12.0117 6.45703 13.7344 8.21484 13.7344 10.3242C13.7344 12.4688 12.0117 14.1914 9.86719 14.1914ZM9.65625 12.6094C9.05859 12.5039 8.60156 12.0117 8.60156 11.3789C8.60156 11.2734 8.70703 11.168 8.8125 11.168C8.95312 11.168 9.02344 11.2734 9.02344 11.3789C9.02344 11.7656 9.30469 12.082 9.65625 12.1875V10.5352C9.05859 10.4297 8.60156 9.90234 8.60156 9.30469C8.60156 8.67188 9.05859 8.17969 9.65625 8.07422V7.93359C9.65625 7.82812 9.76172 7.72266 9.86719 7.72266C9.97266 7.72266 10.0781 7.82812 10.0781 7.93359V8.07422C10.6758 8.17969 11.0977 8.67188 11.0977 9.30469C11.0977 9.41016 11.0273 9.51562 10.8867 9.51562C10.7812 9.51562 10.6758 9.41016 10.6758 9.30469C10.6758 8.91797 10.4297 8.60156 10.0781 8.49609V10.1484C10.6758 10.2539 11.0977 10.7461 11.0977 11.3789C11.0977 12.0117 10.6758 12.5039 10.0781 12.6094V12.7148C10.0781 12.8555 9.97266 12.9258 9.86719 12.9258C9.76172 12.9258 9.65625 12.8555 9.65625 12.7148V12.6094ZM10.0781 12.1875C10.4297 12.082 10.6758 11.7656 10.6758 11.3789C10.6758 10.9922 10.4297 10.6758 10.0781 10.5703V12.1875ZM9.65625 8.49609C9.30469 8.60156 9.02344 8.91797 9.02344 9.30469C9.02344 9.69141 9.30469 10.0078 9.65625 10.1133V8.49609Z" fill="#9BC9FF"/>
</g>
<defs>
<clipPath id="clip0_195_2996">
<rect width="18" height="18" fill="white" transform="translate(6 6)"/>
</clipPath>
</defs>
</svg>
